<svg id="svg" version="1.1" xmlns="http://www.w3.org/2000/svg" xmlns:xlink="http://www.w3.org/1999/xlink" width="400" height="400" viewBox="0, 0, 400,400"><g id="svgg"><path id="path0" d="M144.297 55.125 C 142.969 56.647,143.073 56.786,152.405 66.000 C 161.720 75.196,166.548 83.308,168.672 93.333 C 168.760 93.746,169.277 95.921,169.822 98.167 C 170.367 100.412,170.864 102.513,170.927 102.833 C 171.753 107.053,175.555 113.345,179.968 117.795 C 182.727 120.577,186.247 122.687,191.723 124.841 C 193.175 125.412,194.563 126.046,194.806 126.249 C 195.050 126.451,195.662 126.772,196.167 126.960 C 196.671 127.149,197.946 127.713,199.000 128.214 C 200.054 128.715,201.259 129.278,201.678 129.466 C 202.622 129.888,205.623 132.580,206.856 134.110 C 209.212 137.033,209.839 139.175,209.521 143.214 C 209.215 147.092,208.823 147.493,204.684 148.159 C 202.579 148.497,198.321 149.506,196.667 150.058 C 196.254 150.195,195.584 150.395,195.177 150.502 C 194.770 150.609,193.883 150.952,193.206 151.265 C 192.529 151.578,191.928 151.833,191.871 151.833 C 190.624 151.833,179.907 157.416,176.500 159.841 C 173.775 161.780,171.889 163.162,171.583 163.443 C 171.400 163.612,170.500 164.384,169.583 165.159 C 168.667 165.935,167.504 166.944,167.000 167.402 C 165.334 168.917,158.276 176.146,157.791 176.835 C 157.631 177.063,157.181 177.710,156.791 178.273 C 156.402 178.836,155.705 179.794,155.242 180.403 C 153.774 182.333,149.599 189.528,148.125 192.667 C 147.016 195.028,146.958 195.166,145.972 197.750 C 145.373 199.317,144.058 203.427,143.917 204.172 C 143.874 204.398,143.734 205.033,143.606 205.583 C 142.974 208.295,142.226 212.263,142.002 214.083 C 141.901 214.908,141.744 216.111,141.653 216.756 C 141.562 217.402,141.484 219.764,141.480 222.006 C 141.473 226.364,141.503 226.686,142.594 233.833 C 143.208 237.856,146.190 247.536,147.674 250.322 C 147.751 250.466,148.129 251.258,148.514 252.083 C 149.443 254.069,152.642 259.428,153.838 261.000 C 155.752 263.516,159.319 267.635,159.601 267.654 C 159.953 267.678,164.333 272.428,164.333 272.787 C 164.333 272.879,163.977 273.083,163.542 273.240 C 162.624 273.571,162.521 273.615,160.757 274.422 C 160.028 274.756,159.092 275.266,158.678 275.556 C 158.263 275.846,157.813 276.158,157.678 276.250 C 154.748 278.227,150.775 283.988,149.154 288.609 C 147.169 294.269,146.267 305.032,147.327 310.417 C 148.286 315.287,150.519 319.858,153.325 322.691 C 154.952 324.334,154.869 324.280,158.083 325.766 C 161.972 327.564,167.920 326.024,171.703 322.241 L 172.814 321.131 173.089 321.774 C 173.240 322.127,173.615 323.067,173.921 323.861 C 175.785 328.691,180.248 334.522,184.083 337.136 C 184.725 337.574,185.764 338.293,186.392 338.735 C 187.654 339.622,190.114 340.840,191.577 341.304 L 192.522 341.603 191.210 342.845 C 190.488 343.529,189.762 344.349,189.597 344.669 C 189.431 344.988,189.086 345.663,188.830 346.168 C 185.888 351.964,187.939 358.247,192.943 358.770 C 195.058 358.991,198.133 358.037,199.670 356.683 C 199.989 356.402,200.317 356.171,200.398 356.169 C 200.480 356.168,200.636 356.045,200.745 355.896 C 200.916 355.661,201.057 355.778,201.797 356.771 C 202.933 358.294,202.933 358.294,204.083 359.270 C 211.058 365.188,217.010 362.879,216.594 354.417 C 216.345 349.361,214.828 345.713,211.673 342.588 C 211.028 341.949,210.500 341.379,210.500 341.322 C 210.500 341.228,212.448 340.293,213.833 339.724 C 214.154 339.592,214.529 339.424,214.667 339.351 C 217.363 337.916,218.106 337.419,220.138 335.692 C 220.750 335.173,221.516 334.550,221.840 334.308 C 222.824 333.577,225.089 331.160,226.034 329.833 C 226.913 328.600,228.500 326.070,228.500 325.902 C 228.500 325.854,228.887 325.013,229.359 324.033 C 232.282 317.969,234.073 306.979,232.787 303.000 C 232.742 302.862,232.634 302.300,232.547 301.750 C 231.922 297.829,229.999 292.535,228.115 289.550 C 227.621 288.768,227.646 288.725,228.683 288.567 C 229.086 288.505,229.492 288.400,229.583 288.334 C 229.675 288.267,230.500 288.044,231.417 287.837 C 232.333 287.630,233.527 287.320,234.069 287.147 C 234.611 286.975,235.155 286.833,235.278 286.833 C 235.401 286.833,236.195 286.505,237.042 286.103 C 237.890 285.701,239.258 285.170,240.083 284.923 C 244.147 283.705,245.010 283.409,246.167 282.839 C 250.114 280.893,250.995 280.455,251.750 280.064 C 252.208 279.826,253.596 279.120,254.833 278.494 C 256.071 277.869,257.721 276.902,258.500 276.345 C 259.279 275.788,260.404 275.004,261.000 274.603 C 261.596 274.202,262.236 273.733,262.422 273.562 C 262.740 273.270,264.136 272.074,265.233 271.155 C 271.076 266.260,276.695 260.432,279.043 256.833 C 279.551 256.054,280.184 255.192,280.450 254.917 C 280.916 254.433,282.426 251.992,283.747 249.583 C 284.099 248.942,284.663 248.004,285.000 247.500 C 286.660 245.015,289.684 237.511,291.012 232.583 C 291.210 231.850,291.416 231.176,291.470 231.086 C 291.523 230.996,291.580 230.809,291.595 230.670 C 291.610 230.530,291.783 229.640,291.978 228.690 C 292.173 227.741,292.333 226.747,292.333 226.481 C 292.333 226.215,292.520 224.967,292.749 223.707 C 293.682 218.570,293.746 217.041,293.354 209.167 C 293.169 205.452,293.035 204.231,292.430 200.746 C 292.009 198.322,291.755 197.375,290.350 193.000 C 289.982 191.854,289.603 190.609,289.507 190.233 C 289.356 189.638,286.210 183.263,283.700 178.464 C 283.010 177.145,281.850 175.343,281.194 174.571 C 281.110 174.472,280.753 173.985,280.401 173.488 C 280.048 172.990,279.718 172.546,279.668 172.500 C 279.617 172.454,279.203 171.973,278.746 171.430 C 277.360 169.782,270.608 163.092,269.417 162.186 C 269.142 161.977,268.617 161.527,268.250 161.187 C 267.883 160.846,267.058 160.179,266.417 159.703 C 265.775 159.228,265.174 158.776,265.081 158.700 C 264.989 158.624,264.389 158.254,263.748 157.878 C 263.107 157.502,262.428 157.047,262.237 156.868 C 262.047 156.688,261.728 156.489,261.529 156.426 C 261.330 156.363,261.167 156.241,261.167 156.155 C 261.167 156.070,261.071 156.000,260.955 156.000 C 260.838 156.000,260.369 155.756,259.913 155.457 C 257.823 154.091,251.076 151.032,247.500 149.830 C 244.081 148.682,239.204 147.333,238.468 147.333 C 238.251 147.333,237.663 147.221,237.161 147.083 C 236.660 146.945,235.353 146.758,234.256 146.667 C 233.159 146.577,231.884 146.397,231.422 146.267 C 229.832 145.820,222.834 145.451,221.640 145.751 C 220.227 146.105,220.054 142.802,221.320 139.627 C 222.732 136.087,223.797 135.242,230.750 132.156 C 232.033 131.586,233.863 130.869,234.815 130.562 C 235.768 130.255,237.343 129.622,238.315 129.155 C 239.288 128.689,240.871 128.042,241.833 127.717 C 246.273 126.218,248.833 124.399,251.517 120.833 C 252.172 119.962,252.880 119.063,253.089 118.833 C 253.299 118.604,253.941 117.592,254.516 116.583 C 255.091 115.575,255.622 114.725,255.697 114.694 C 255.772 114.664,255.833 114.561,255.833 114.465 C 255.833 114.369,256.054 113.832,256.323 113.270 C 256.592 112.709,257.011 111.725,257.253 111.083 C 257.496 110.442,257.882 109.429,258.113 108.833 C 258.574 107.643,258.895 106.684,259.091 105.917 C 259.161 105.642,259.250 105.304,259.288 105.167 C 259.327 105.029,259.424 104.502,259.505 103.994 C 259.586 103.487,259.765 102.640,259.902 102.112 C 260.204 100.955,260.572 98.433,260.915 95.167 C 261.055 93.837,261.249 92.000,261.346 91.083 C 261.967 85.211,264.965 79.858,269.057 77.317 C 269.560 77.005,270.671 76.320,271.528 75.795 C 274.240 74.133,274.856 73.209,273.988 72.106 C 273.292 71.221,271.754 71.591,268.000 73.547 C 264.824 75.202,263.735 75.731,261.000 76.948 C 260.496 77.173,259.633 77.569,259.083 77.830 C 258.533 78.090,257.746 78.453,257.333 78.635 C 256.477 79.014,252.667 80.267,251.917 80.417 C 250.515 80.697,249.016 81.182,247.667 81.793 C 247.162 82.021,246.150 82.466,245.417 82.782 C 244.683 83.098,243.737 83.569,243.313 83.830 C 242.889 84.091,242.139 84.490,241.646 84.717 C 241.153 84.944,239.850 85.706,238.750 86.410 C 237.650 87.115,236.309 87.967,235.770 88.304 C 231.236 91.138,226.618 95.673,224.960 98.917 C 223.684 101.413,223.333 102.180,223.333 102.474 C 223.333 103.437,222.472 102.933,221.759 101.552 C 220.988 100.059,220.802 99.604,220.718 99.009 C 220.673 98.683,220.495 98.042,220.323 97.583 C 220.152 97.125,219.745 95.888,219.419 94.833 C 218.781 92.773,218.572 92.354,216.595 89.167 C 214.688 86.093,213.260 84.157,211.063 81.667 C 210.861 81.438,210.145 80.624,209.473 79.859 C 208.369 78.604,205.842 76.588,203.195 74.848 C 200.785 73.265,199.192 72.318,196.583 70.917 C 194.495 69.795,188.598 67.904,185.667 67.416 C 185.346 67.362,184.596 67.216,184.000 67.090 C 183.404 66.964,182.017 66.702,180.917 66.508 C 179.817 66.314,178.542 66.085,178.083 65.999 C 177.099 65.815,172.056 65.094,169.333 64.749 C 162.273 63.854,159.508 63.338,157.750 62.587 C 157.475 62.469,156.848 62.243,156.356 62.084 C 155.865 61.924,155.265 61.691,155.023 61.565 C 154.781 61.439,154.490 61.335,154.375 61.334 C 154.260 61.334,154.167 61.258,154.167 61.167 C 154.167 61.075,154.094 61.000,154.004 61.000 C 153.518 61.000,148.425 57.232,147.250 56.003 C 146.137 54.839,144.874 54.463,144.297 55.125 M160.941 67.430 C 162.119 67.667,164.126 67.928,165.401 68.011 C 166.676 68.093,167.838 68.197,167.984 68.241 C 168.695 68.457,175.253 69.188,177.833 69.338 C 183.490 69.668,187.126 70.560,191.250 72.629 C 192.258 73.135,194.664 74.273,196.597 75.160 C 203.282 78.225,209.444 84.269,214.363 92.583 C 216.970 96.989,217.850 98.710,218.275 100.229 C 218.509 101.066,218.911 102.425,219.169 103.250 C 220.237 106.664,221.211 111.946,221.058 113.500 C 220.377 120.438,221.535 123.748,224.097 122.186 C 225.146 121.546,225.248 121.050,225.267 116.500 C 225.308 106.878,226.658 102.094,230.697 97.255 C 232.937 94.571,239.277 89.618,242.632 87.931 C 244.044 87.221,250.028 84.889,251.449 84.495 C 253.578 83.905,256.806 82.837,258.545 82.146 C 259.441 81.791,260.195 81.500,260.222 81.500 C 260.248 81.500,260.026 82.004,259.726 82.620 C 258.625 84.888,258.131 86.883,257.839 90.250 C 257.743 91.350,257.481 93.337,257.256 94.667 C 257.031 95.996,256.727 97.946,256.579 99.000 C 255.582 106.140,252.492 113.651,248.190 119.392 C 246.364 121.829,239.990 125.381,233.833 127.392 C 232.871 127.707,231.108 128.411,229.917 128.957 C 228.725 129.503,227.131 130.195,226.375 130.496 C 219.815 133.103,216.974 136.997,216.932 143.440 L 216.917 145.798 215.750 145.906 C 215.108 145.965,214.243 146.056,213.828 146.107 L 213.072 146.200 213.136 142.975 C 213.251 137.215,212.547 135.151,209.261 131.612 C 205.750 127.830,203.812 126.292,201.234 125.239 C 199.855 124.676,197.469 123.575,194.667 122.210 C 193.063 121.428,191.159 120.535,190.438 120.225 C 188.977 119.598,186.729 118.411,185.333 117.530 C 180.937 114.754,174.914 106.391,173.608 101.250 C 173.248 99.833,172.411 95.567,172.087 93.500 C 171.475 89.598,170.649 87.114,168.291 82.083 C 166.312 77.860,164.988 75.705,162.662 72.919 C 161.972 72.093,161.038 70.817,160.586 70.083 C 160.133 69.350,159.479 68.359,159.132 67.882 C 158.506 67.023,158.360 66.727,158.650 66.906 C 158.732 66.957,159.763 67.193,160.941 67.430 M191.833 92.203 C 190.043 93.133,190.910 95.153,194.118 97.525 C 195.958 98.887,201.833 107.874,201.833 109.329 C 201.833 109.407,202.064 109.665,202.346 109.902 C 203.870 111.184,205.977 109.640,205.282 107.750 C 204.260 104.969,202.469 101.693,200.862 99.667 C 200.099 98.704,199.088 97.429,198.616 96.833 C 195.851 93.346,193.164 91.511,191.833 92.203 M239.602 101.348 C 238.995 101.826,238.720 102.416,238.321 104.094 C 238.134 104.884,237.907 105.722,237.818 105.957 C 237.501 106.792,234.441 111.259,233.793 111.833 C 231.956 113.461,233.789 116.073,235.967 114.930 C 237.525 114.112,241.172 108.445,241.830 105.819 C 242.024 105.048,242.297 104.061,242.437 103.626 C 243.057 101.708,241.122 100.153,239.602 101.348 M230.583 149.576 C 286.318 156.539,309.173 217.075,272.242 259.917 C 239.641 297.736,178.289 295.511,154.162 255.634 C 127.403 211.408,162.139 153.002,217.417 149.276 C 219.798 149.115,228.482 149.313,230.583 149.576 M228.777 166.341 C 225.780 166.844,223.576 168.003,220.972 170.445 C 216.074 175.037,208.344 175.941,203.833 172.450 C 203.054 171.846,201.903 170.992,201.274 170.551 L 200.132 169.750 198.074 169.695 C 191.916 169.530,186.237 174.215,184.931 180.539 C 183.936 185.357,183.330 186.578,180.878 188.700 C 179.489 189.903,176.956 190.709,172.083 191.499 C 168.237 192.123,166.032 193.255,163.333 195.992 C 160.601 198.764,160.217 199.867,160.659 203.675 C 161.087 207.359,161.745 209.755,163.177 212.833 C 165.664 218.179,165.805 221.907,163.758 228.171 C 161.059 236.427,160.980 239.240,163.294 244.662 C 164.834 248.272,166.603 250.140,171.417 253.240 C 174.172 255.015,174.676 255.379,175.883 256.467 C 176.543 257.062,177.546 257.916,178.112 258.363 C 178.998 259.064,179.263 259.413,180.015 260.879 C 190.611 281.507,214.892 286.895,232.041 272.423 C 232.751 271.824,233.411 271.333,233.508 271.333 C 233.606 271.333,234.000 271.193,234.384 271.022 C 235.351 270.592,236.452 270.761,238.750 271.693 C 242.283 273.125,244.186 273.186,246.745 271.949 C 249.628 270.555,251.673 267.647,251.992 264.486 C 252.218 262.239,254.174 259.916,256.250 259.430 C 257.855 259.053,259.533 256.767,260.939 253.038 C 261.556 251.401,261.419 249.343,260.505 246.537 C 259.638 243.874,259.685 242.543,260.761 239.223 C 261.537 236.829,262.629 235.818,265.575 234.765 C 270.126 233.139,271.732 230.558,271.701 224.917 C 271.671 219.191,271.084 217.878,267.086 214.590 C 261.875 210.303,260.833 205.703,263.667 199.498 C 265.385 195.738,265.459 192.739,263.891 190.458 C 261.626 187.161,256.927 184.426,252.505 183.831 C 251.728 183.726,251.042 183.609,250.980 183.571 C 250.918 183.532,250.145 183.426,249.263 183.335 C 244.686 182.860,242.966 181.734,241.371 178.167 C 240.978 177.289,240.966 177.155,241.074 175.015 C 241.178 172.977,241.156 172.697,240.831 171.826 C 239.362 167.898,234.010 165.463,228.777 166.341 M233.583 168.893 C 237.196 169.823,239.054 171.948,238.653 174.691 C 238.355 176.726,238.510 177.745,239.388 179.552 C 241.412 183.710,243.488 185.061,248.917 185.750 C 255.063 186.529,257.968 187.652,260.502 190.226 C 263.046 192.811,263.273 194.670,261.505 198.417 C 257.992 205.863,259.554 211.713,266.552 217.313 C 268.870 219.168,269.212 220.103,269.235 224.667 C 269.262 229.873,268.127 231.627,264.000 232.754 C 262.455 233.177,259.920 235.179,259.245 236.510 C 257.504 239.945,257.132 243.492,258.142 247.018 C 259.020 250.086,259.079 251.285,258.425 252.833 C 257.212 255.706,256.142 257.167,255.251 257.167 C 253.326 257.167,249.891 261.286,249.664 263.866 C 249.457 266.223,247.961 268.608,246.053 269.624 C 243.934 270.754,242.911 270.715,239.507 269.376 C 238.457 268.964,237.313 268.588,236.965 268.541 C 236.207 268.439,236.215 268.493,236.833 267.640 C 237.108 267.261,237.333 266.889,237.333 266.815 C 237.333 266.638,239.382 263.909,240.057 263.187 C 240.380 262.842,241.357 262.255,242.583 261.671 C 244.753 260.636,245.602 259.909,246.708 258.141 C 248.269 255.643,248.124 254.645,245.852 252.261 C 243.784 250.090,243.617 249.016,243.790 239.005 C 243.928 230.972,243.599 228.272,241.796 222.667 C 239.678 216.082,235.162 210.224,230.743 208.330 C 222.539 204.814,215.195 203.375,208.985 204.068 C 191.172 206.056,177.399 221.507,176.174 240.874 C 175.899 245.226,176.590 251.774,177.602 254.405 C 177.681 254.611,177.250 254.366,176.404 253.725 C 175.678 253.175,174.221 252.174,173.167 251.503 C 169.475 249.150,167.256 247.208,166.386 245.570 C 163.444 240.035,163.400 236.799,166.153 228.537 C 168.315 222.047,168.071 217.378,165.270 211.628 C 164.351 209.742,164.117 209.023,163.517 206.250 C 162.575 201.888,162.658 200.551,163.979 198.818 C 166.130 195.997,168.789 194.474,172.667 193.841 C 182.419 192.250,185.398 189.794,187.081 181.959 C 187.787 178.670,188.481 177.308,190.427 175.392 C 194.310 171.570,198.281 170.891,201.276 173.539 C 202.819 174.903,204.726 176.067,206.074 176.468 C 210.938 177.912,218.419 176.103,222.177 172.573 C 225.963 169.018,229.561 167.857,233.583 168.893 M217.667 208.665 C 218.629 208.864,219.904 209.127,220.500 209.248 C 223.626 209.883,227.977 211.517,230.180 212.881 C 233.067 214.669,236.197 219.253,237.715 223.917 C 239.375 229.018,239.506 230.204,239.569 240.750 C 239.631 251.181,239.842 252.304,242.186 254.700 C 243.339 255.879,243.296 255.705,242.640 256.533 C 242.239 257.040,241.698 257.392,240.366 258.016 C 238.068 259.092,237.201 259.776,235.845 261.583 C 235.225 262.408,234.587 263.193,234.425 263.327 C 234.264 263.460,233.962 263.948,233.754 264.410 C 232.733 266.685,227.284 271.130,222.917 273.252 C 199.835 284.468,175.704 262.891,181.098 235.859 C 184.723 217.692,201.389 205.299,217.667 208.665 M225.409 244.672 C 223.938 244.739,220.751 244.880,218.326 244.987 C 211.114 245.306,210.833 245.378,210.833 246.917 C 210.833 248.601,211.000 248.627,219.333 248.251 C 228.533 247.835,229.061 247.799,229.537 247.559 C 231.102 246.769,230.265 244.403,228.464 244.526 C 228.254 244.540,226.880 244.606,225.409 244.672 M170.278 277.620 C 172.671 279.268,175.942 281.198,178.711 282.596 C 180.108 283.300,181.277 283.900,181.310 283.928 C 181.342 283.957,180.830 284.603,180.170 285.365 C 179.511 286.127,178.758 286.999,178.499 287.303 C 177.501 288.471,176.759 287.865,175.529 284.875 C 174.769 283.029,172.647 283.066,170.594 284.961 L 169.604 285.874 168.662 285.789 C 167.343 285.669,166.788 285.326,166.109 284.211 C 163.774 280.380,157.476 282.465,159.415 286.427 C 159.994 287.612,160.209 287.447,156.688 288.530 C 154.404 289.232,153.192 290.877,153.648 292.656 C 153.911 293.683,153.593 295.039,152.873 295.955 C 151.718 297.424,151.515 298.714,152.249 299.910 C 152.472 300.273,152.783 301.113,152.939 301.776 L 153.223 302.981 152.776 303.657 C 151.255 305.956,151.781 308.579,153.902 309.266 C 155.617 309.822,155.991 310.592,155.583 312.724 C 154.738 317.140,157.801 319.671,160.754 316.996 C 161.793 316.055,162.074 316.001,162.920 316.575 C 165.570 318.373,169.002 315.575,167.917 312.500 C 167.548 311.456,167.584 310.833,168.011 310.833 C 169.371 310.833,170.108 308.684,169.412 306.750 C 169.001 305.610,169.072 305.387,169.994 304.919 C 171.478 304.167,171.424 304.044,171.166 307.572 C 170.993 309.938,171.181 313.824,171.568 315.870 L 171.797 317.080 170.999 318.001 C 161.444 329.031,150.267 320.992,150.259 303.083 C 150.252 288.200,157.606 276.423,166.833 276.542 L 168.750 276.567 170.278 277.620 M163.612 284.747 C 163.806 284.883,164.158 285.323,164.393 285.724 C 166.020 288.502,169.652 288.951,172.060 286.674 C 172.988 285.796,173.447 285.633,173.603 286.125 C 174.132 287.795,175.739 290.000,176.427 290.000 C 176.624 290.000,176.542 290.248,176.081 291.042 C 174.537 293.699,173.170 297.059,172.313 300.306 L 171.778 302.333 170.931 302.333 C 170.330 302.334,169.792 302.477,169.083 302.825 C 166.887 303.903,166.434 304.962,167.169 307.307 C 167.590 308.649,167.593 308.620,166.997 308.751 C 165.527 309.074,164.977 310.562,165.585 312.568 C 166.182 314.536,165.305 315.437,163.804 314.397 C 162.521 313.507,161.060 313.696,159.690 314.928 C 157.876 316.559,157.424 315.812,157.939 312.034 C 158.252 309.734,157.226 308.029,155.095 307.310 C 153.966 306.929,153.893 306.425,154.738 304.813 C 155.586 303.193,155.513 301.529,154.497 299.359 C 153.961 298.212,153.956 298.243,154.776 297.221 C 155.630 296.158,156.271 293.618,155.976 292.468 C 155.710 291.433,156.086 291.003,157.631 290.575 C 159.737 289.992,160.390 289.762,160.877 289.430 C 162.143 288.568,162.473 287.330,161.770 286.073 C 161.257 285.154,161.231 284.910,161.625 284.680 C 162.060 284.427,163.210 284.466,163.612 284.747 M187.083 286.194 C 189.560 287.055,189.548 287.047,189.410 287.904 C 189.222 289.075,188.533 289.717,186.198 290.901 C 184.877 291.570,182.046 293.922,181.667 294.666 C 181.236 295.510,181.236 296.745,181.667 297.750 C 182.453 299.584,182.012 301.588,180.560 302.776 C 177.585 305.212,176.294 308.923,177.526 311.500 C 178.865 314.301,179.061 315.886,178.313 317.870 C 176.867 321.708,178.573 324.232,182.917 324.682 C 186.289 325.031,187.167 325.714,187.167 327.987 C 187.167 334.137,191.240 336.376,196.230 332.970 C 198.407 331.484,200.479 331.458,202.236 332.895 C 205.655 335.692,209.524 335.254,211.256 331.874 C 211.597 331.209,212.106 330.440,212.386 330.166 L 212.897 329.667 215.301 329.667 C 219.275 329.667,220.095 328.741,219.598 324.811 L 219.458 323.705 220.811 323.002 C 222.092 322.335,223.170 321.396,223.164 320.953 C 223.162 320.841,223.050 320.225,222.914 319.583 C 222.546 317.847,222.577 317.654,223.347 316.909 C 226.129 314.215,226.018 311.078,223.083 309.457 C 221.379 308.516,221.582 307.174,223.745 305.083 C 227.222 301.723,226.139 296.984,221.312 294.434 C 219.058 293.243,218.333 292.416,218.333 291.035 L 218.333 290.391 220.458 290.188 C 221.627 290.077,222.958 289.944,223.417 289.893 L 224.250 289.800 225.036 291.108 C 227.556 295.301,229.100 300.279,229.480 305.436 C 229.955 311.892,227.940 320.648,224.895 325.364 C 216.543 338.297,202.233 343.003,190.049 336.823 C 172.562 327.953,169.194 301.624,183.650 286.792 C 184.342 286.081,184.948 285.500,184.996 285.499 C 185.044 285.499,185.983 285.812,187.083 286.194 M196.417 288.832 C 201.984 290.009,206.755 290.500,212.617 290.500 L 216.167 290.500 216.167 291.442 C 216.167 293.324,217.441 294.974,219.867 296.233 C 223.643 298.192,224.635 301.411,222.113 303.518 C 219.022 306.101,218.870 310.465,221.840 311.355 C 223.643 311.895,223.595 313.172,221.693 315.253 C 220.697 316.343,220.515 316.990,220.830 318.332 C 221.372 320.648,221.130 321.360,219.727 321.578 C 217.879 321.864,217.142 322.860,217.483 324.608 C 218.162 328.089,217.700 328.577,214.501 327.758 L 212.717 327.301 212.031 327.651 C 211.035 328.159,210.100 329.213,209.327 330.698 C 208.451 332.383,208.072 332.605,206.536 332.337 C 205.139 332.094,204.449 331.802,203.568 331.080 C 201.387 329.293,197.484 329.158,195.364 330.798 C 191.715 333.618,189.500 332.540,189.500 327.943 C 189.500 324.551,187.546 322.846,183.167 322.417 C 180.201 322.126,179.528 321.137,180.500 318.500 C 181.332 316.244,180.912 312.657,179.568 310.548 C 178.873 309.456,180.073 305.887,181.433 305.000 C 184.019 303.313,185.050 299.906,183.836 297.060 C 183.516 296.310,183.498 296.151,183.694 295.786 C 183.982 295.246,186.487 293.263,187.574 292.713 C 189.910 291.532,191.111 290.358,191.492 288.883 C 191.606 288.443,191.724 287.998,191.754 287.894 C 191.792 287.763,192.286 287.829,193.362 288.110 C 194.217 288.332,195.592 288.657,196.417 288.832 M160.250 292.761 C 155.792 295.068,156.077 305.925,160.605 306.300 C 163.249 306.520,165.167 303.407,165.167 298.896 C 165.167 294.447,162.770 291.456,160.250 292.761 M199.801 293.172 C 187.840 295.024,179.329 313.286,188.049 318.387 C 192.818 321.176,198.412 318.728,205.199 310.881 C 212.299 302.671,208.971 291.752,199.801 293.172 M162.221 295.042 C 163.762 297.108,163.475 301.981,161.700 303.875 C 159.218 306.524,157.972 298.068,160.423 295.204 C 161.173 294.329,161.656 294.285,162.221 295.042 M203.606 297.088 C 208.491 299.950,203.646 311.273,195.979 314.914 C 189.232 318.118,185.745 313.410,189.318 305.917 C 192.396 299.459,199.823 294.871,203.606 297.088 M207.075 342.826 C 213.144 346.827,216.220 359.508,211.119 359.498 C 206.545 359.490,200.591 350.276,201.496 344.608 C 201.746 343.046,201.775 343.000,202.510 343.000 C 204.159 343.000,204.658 344.207,203.750 346.000 C 203.002 347.477,203.401 349.667,204.419 349.667 C 205.362 349.667,205.967 351.057,205.485 352.116 C 204.766 353.695,205.502 354.833,207.242 354.833 C 207.933 354.833,208.167 355.096,208.167 355.874 C 208.167 357.376,210.116 357.897,211.198 356.685 C 211.923 355.874,211.778 354.142,210.917 353.334 C 210.394 352.842,210.394 352.522,210.920 352.024 C 211.990 351.008,211.084 349.191,209.077 348.331 C 208.254 347.978,207.793 347.307,208.138 346.962 C 208.616 346.484,208.258 345.450,207.399 344.833 C 207.080 344.604,206.668 344.130,206.484 343.780 C 206.266 343.367,205.961 343.076,205.616 342.952 L 205.083 342.762 205.583 342.651 C 206.402 342.468,206.560 342.487,207.075 342.826 M197.655 342.773 L 198.185 342.879 198.075 343.814 C 197.942 344.952,197.704 345.167,196.574 345.167 C 195.587 345.167,195.003 345.522,194.670 346.325 C 194.473 346.800,194.488 347.104,194.760 348.214 C 194.904 348.797,194.521 349.261,193.781 349.401 C 191.985 349.740,191.225 351.592,192.400 352.767 C 193.165 353.532,193.926 353.542,194.848 352.802 C 195.462 352.308,195.549 352.284,196.058 352.468 C 197.270 352.906,198.034 352.498,198.287 351.278 C 198.468 350.410,198.642 350.444,198.994 351.417 C 199.160 351.875,199.349 352.381,199.415 352.542 C 199.497 352.740,199.459 352.833,199.297 352.833 C 199.166 352.833,198.524 353.238,197.870 353.733 C 196.338 354.894,195.407 355.250,193.904 355.250 C 189.088 355.250,189.917 347.493,195.101 344.050 C 195.569 343.739,196.050 343.301,196.171 343.076 C 196.399 342.649,196.715 342.585,197.655 342.773 M206.590 345.607 C 207.207 346.102,207.220 346.135,207.011 346.639 C 206.619 347.586,207.258 348.706,208.563 349.359 C 210.183 350.170,210.581 350.867,209.833 351.583 C 209.168 352.221,209.167 352.912,209.831 353.747 C 210.721 354.866,210.825 355.912,210.065 356.103 C 209.419 356.265,209.167 356.071,209.167 355.411 C 209.167 354.281,208.664 353.825,207.250 353.673 C 206.295 353.570,206.094 353.187,206.594 352.425 C 207.301 351.344,206.608 349.490,205.249 348.833 C 204.327 348.386,204.230 347.612,204.915 346.142 C 205.143 345.651,205.331 344.988,205.332 344.667 L 205.335 344.083 205.643 344.590 C 205.813 344.868,206.239 345.326,206.590 345.607 M198.109 347.708 C 198.276 349.140,198.266 349.266,197.977 349.468 C 197.564 349.757,197.167 350.546,197.167 351.075 C 197.167 351.512,196.639 351.694,196.417 351.333 C 196.182 350.954,195.025 351.155,194.428 351.679 C 193.749 352.276,193.113 352.293,193.031 351.717 C 192.940 351.076,193.288 350.704,194.235 350.428 C 195.781 349.979,196.277 349.047,195.807 347.478 C 195.530 346.554,195.905 346.167,197.074 346.167 L 197.930 346.167 198.109 347.708 " stroke="none" fill="#040404" fill-rule="evenodd"></path><path id="path1" d="M158.833 62.930 C 160.220 63.402,165.409 64.373,165.165 64.115 C 165.119 64.066,164.594 63.906,163.999 63.760 C 163.404 63.614,162.804 63.464,162.667 63.426 C 161.823 63.194,159.937 62.848,159.083 62.768 L 158.083 62.675 158.833 62.930 M257.660 110.114 C 257.454 110.739,257.109 111.619,256.894 112.071 C 256.371 113.166,256.476 113.188,257.117 112.117 C 257.603 111.305,258.278 109.222,258.110 109.054 C 258.068 109.013,257.866 109.490,257.660 110.114 M234.500 133.276 C 234.362 133.322,234.146 133.393,234.018 133.434 C 233.890 133.475,233.822 133.544,233.866 133.588 C 233.910 133.632,234.239 133.560,234.598 133.429 C 235.187 133.213,235.099 133.077,234.500 133.276 M229.449 135.519 C 229.211 135.657,229.189 135.743,229.344 135.930 C 229.617 136.259,229.721 136.227,229.943 135.749 C 230.157 135.286,229.986 135.206,229.449 135.519 M232.835 143.815 C 232.058 144.032,233.595 144.419,235.833 144.571 L 237.083 144.656 235.667 144.170 C 234.244 143.681,233.605 143.601,232.835 143.815 M224.795 145.621 C 225.094 145.658,225.544 145.657,225.795 145.619 C 226.045 145.581,225.800 145.551,225.250 145.552 C 224.700 145.553,224.495 145.584,224.795 145.621 M240.856 147.044 C 240.745 147.155,240.563 147.254,240.452 147.264 C 240.341 147.274,239.987 147.300,239.667 147.320 C 239.247 147.348,239.786 147.539,241.583 148.002 C 242.958 148.356,244.894 148.913,245.885 149.239 C 248.459 150.088,248.343 149.901,245.583 148.752 C 244.942 148.485,244.213 148.101,243.964 147.898 C 243.545 147.558,242.531 147.164,241.488 146.936 C 241.249 146.883,240.969 146.931,240.856 147.044 M208.751 208.439 C 202.952 209.181,196.697 212.050,192.583 215.856 C 192.217 216.195,191.700 216.642,191.435 216.850 C 188.120 219.448,183.565 227.089,181.923 232.808 C 173.963 260.524,198.538 284.875,222.750 273.263 C 227.130 271.163,233.667 265.836,233.667 264.368 C 233.667 264.123,234.001 263.620,234.556 263.029 C 235.046 262.509,235.680 261.737,235.966 261.313 C 236.879 259.962,238.098 259.018,240.255 257.995 C 241.913 257.208,242.333 256.932,242.691 256.397 L 243.122 255.750 242.103 254.663 C 239.707 252.108,239.266 249.488,239.450 238.895 C 239.579 231.421,239.287 228.942,237.705 224.083 C 236.164 219.351,233.169 214.906,230.262 213.035 C 225.056 209.683,215.304 207.600,208.751 208.439 M290.947 232.958 C 290.392 234.957,290.376 235.287,290.907 233.784 C 291.291 232.694,291.600 231.333,291.463 231.333 C 291.427 231.333,291.195 232.065,290.947 232.958 M290.185 235.519 C 290.083 235.813,290.028 236.083,290.063 236.119 C 290.099 236.155,290.212 235.943,290.315 235.648 C 290.417 235.354,290.472 235.083,290.437 235.048 C 290.401 235.012,290.288 235.224,290.185 235.519 M229.588 244.699 C 230.769 245.237,230.748 247.100,229.554 247.654 C 229.239 247.800,227.402 247.947,224.000 248.098 C 221.204 248.223,217.421 248.397,215.593 248.485 C 211.369 248.688,210.396 248.313,210.736 246.613 C 211.001 245.286,211.218 245.242,219.000 244.920 C 222.529 244.774,225.567 244.630,225.750 244.600 C 226.639 244.454,229.196 244.520,229.588 244.699 M144.344 246.086 C 144.318 246.511,146.032 250.333,146.249 250.333 C 146.344 250.333,146.178 249.899,145.516 248.417 C 144.699 246.586,144.355 245.903,144.344 246.086 M146.667 255.429 C 146.667 255.590,147.522 256.994,147.680 257.092 C 147.877 257.213,147.668 256.734,147.188 255.958 C 146.822 255.369,146.667 255.210,146.667 255.429 M161.802 271.917 C 161.859 272.411,161.934 272.500,162.289 272.500 C 162.645 272.500,162.676 272.462,162.497 272.246 C 162.381 272.106,162.333 271.944,162.391 271.886 C 162.529 271.748,162.183 271.333,161.930 271.333 C 161.804 271.333,161.758 271.542,161.802 271.917 M158.245 274.342 C 158.086 274.598,158.303 274.763,158.517 274.549 C 158.637 274.430,158.640 274.336,158.526 274.266 C 158.433 274.208,158.306 274.242,158.245 274.342 M153.074 280.848 C 153.013 280.948,152.834 280.996,152.678 280.955 C 152.482 280.904,152.324 281.042,152.171 281.399 C 152.048 281.684,151.659 282.506,151.307 283.227 C 150.538 284.799,150.467 285.282,151.193 284.000 C 151.479 283.496,152.072 282.540,152.512 281.875 C 152.952 281.210,153.284 280.667,153.249 280.667 C 153.215 280.667,153.136 280.748,153.074 280.848 M161.656 284.808 L 161.275 285.117 161.668 285.668 C 163.245 287.883,161.869 289.547,157.535 290.665 C 156.429 290.951,155.707 291.674,155.965 292.239 C 156.439 293.280,155.831 295.953,154.820 297.265 C 154.036 298.284,154.041 298.195,154.680 299.559 C 155.502 301.316,155.566 303.389,154.840 304.772 C 153.975 306.418,154.038 306.806,155.244 307.277 C 157.417 308.128,158.106 309.317,157.923 311.900 C 157.692 315.158,157.695 315.204,158.203 315.490 C 158.640 315.737,158.677 315.725,159.286 315.149 C 160.847 313.671,162.485 313.376,163.807 314.333 C 164.641 314.938,164.846 314.950,165.447 314.433 L 165.912 314.033 165.623 312.947 C 164.974 310.512,165.392 309.067,166.838 308.749 C 167.420 308.621,167.498 308.100,167.083 307.109 C 166.077 304.702,168.217 302.167,171.255 302.167 C 171.782 302.167,171.783 302.164,172.165 300.625 C 172.922 297.570,174.208 294.306,175.758 291.504 C 176.176 290.748,176.495 290.116,176.467 290.101 C 176.440 290.085,176.201 289.963,175.936 289.830 C 175.196 289.455,174.133 287.871,173.676 286.458 C 173.415 285.650,173.312 285.666,172.190 286.693 C 169.672 288.996,165.984 288.559,164.310 285.760 C 163.555 284.498,162.504 284.121,161.656 284.808 M191.669 288.526 C 191.197 290.375,190.495 291.181,188.357 292.333 C 187.591 292.746,186.223 293.665,185.316 294.376 C 183.481 295.814,183.473 295.834,184.000 297.333 C 185.005 300.189,183.997 303.339,181.538 305.031 C 180.043 306.060,178.953 309.205,179.642 310.502 C 181.119 313.286,181.453 316.302,180.542 318.639 C 179.550 321.182,180.210 322.002,183.583 322.418 C 187.702 322.925,189.479 324.483,189.493 327.599 C 189.503 329.734,190.109 331.531,190.997 332.055 C 191.974 332.632,193.577 332.123,195.566 330.605 C 197.402 329.204,201.107 329.190,203.015 330.577 C 204.558 331.699,204.862 331.871,205.691 332.092 C 207.778 332.647,208.326 332.414,209.330 330.543 C 210.869 327.676,212.045 327.021,214.489 327.671 C 217.439 328.455,218.217 327.833,217.521 325.250 C 216.977 323.230,217.690 321.834,219.397 321.578 C 221.017 321.335,221.307 320.671,220.780 318.417 C 220.431 316.927,220.585 316.406,221.742 315.150 C 223.308 313.451,223.513 312.006,222.245 311.593 C 218.673 310.431,218.848 305.515,222.547 303.092 C 224.709 301.675,223.240 298.160,219.669 296.204 C 217.310 294.913,216.001 293.193,215.999 291.385 L 215.999 290.583 211.958 290.559 C 205.252 290.520,199.399 289.733,192.302 287.917 C 191.884 287.810,191.842 287.851,191.669 288.526 M145.858 292.120 C 145.761 292.302,145.750 292.532,145.834 292.667 C 145.941 292.842,146.006 292.786,146.092 292.442 C 146.232 291.884,146.090 291.688,145.858 292.120 M162.833 292.898 C 166.465 294.680,165.914 304.449,162.085 306.189 C 158.737 307.710,156.045 302.731,157.270 297.283 C 158.146 293.387,160.327 291.668,162.833 292.898 M203.439 293.232 C 210.185 295.028,211.098 304.410,205.167 310.987 C 199.977 316.741,197.554 318.562,194.167 319.252 C 188.301 320.447,184.001 316.634,184.392 310.583 C 185.009 301.030,195.801 291.198,203.439 293.232 M232.599 301.583 C 232.738 302.410,232.834 302.543,232.831 301.903 C 232.829 301.635,232.752 301.304,232.658 301.167 C 232.536 300.988,232.519 301.106,232.599 301.583 M233.050 305.167 C 233.050 305.671,233.081 305.877,233.119 305.625 C 233.158 305.373,233.158 304.960,233.119 304.708 C 233.081 304.456,233.050 304.662,233.050 305.167 M144.494 305.094 C 144.031 305.960,144.453 308.809,145.047 308.829 C 145.192 308.834,145.013 305.422,144.843 304.947 C 144.748 304.681,144.706 304.699,144.494 305.094 M178.330 336.002 C 178.052 336.174,178.561 336.814,179.922 338.000 L 180.400 338.417 180.095 337.917 C 179.927 337.642,179.624 337.229,179.421 337.000 C 179.217 336.771,178.942 336.420,178.809 336.219 C 178.640 335.965,178.496 335.900,178.330 336.002 M211.917 341.000 C 211.795 341.197,211.958 341.197,212.417 341.000 C 212.738 340.862,212.737 340.856,212.385 340.845 C 212.184 340.839,211.973 340.908,211.917 341.000 M181.333 341.500 C 181.333 341.811,181.378 341.856,181.533 341.700 C 181.689 341.544,181.689 341.456,181.533 341.300 C 181.378 341.144,181.333 341.189,181.333 341.500 M190.000 342.159 C 190.137 342.252,190.394 342.329,190.569 342.331 C 190.996 342.334,190.863 342.239,190.250 342.102 C 189.885 342.020,189.817 342.036,190.000 342.159 M181.604 343.833 C 181.746 345.488,181.951 345.839,182.025 344.552 C 182.068 343.798,182.008 343.416,181.790 343.061 C 181.497 342.585,181.496 342.588,181.604 343.833 M205.080 345.819 C 204.392 347.454,204.418 348.332,205.167 348.690 C 206.690 349.418,207.301 350.896,206.678 352.344 C 206.237 353.369,206.409 353.667,207.441 353.667 C 208.617 353.667,209.333 354.389,209.333 355.575 C 209.333 356.228,209.668 356.363,210.244 355.942 C 210.682 355.621,210.489 354.638,209.842 353.901 C 209.167 353.132,209.126 352.086,209.750 351.500 C 210.502 350.794,210.116 350.152,208.453 349.341 C 207.136 348.698,206.490 347.453,206.989 346.520 C 207.114 346.288,206.983 346.077,206.344 345.475 L 205.543 344.721 205.080 345.819 M184.178 345.292 C 184.189 345.698,184.206 345.712,184.333 345.417 C 184.529 344.961,184.529 344.833,184.333 344.833 C 184.242 344.833,184.172 345.040,184.178 345.292 M185.933 345.289 C 185.878 345.344,185.833 345.801,185.833 346.306 C 185.833 347.372,186.006 347.314,186.266 346.161 C 186.440 345.390,186.272 344.950,185.933 345.289 M195.805 346.745 C 195.676 347.030,195.671 347.223,195.790 347.370 C 196.705 348.505,195.850 350.049,194.003 350.598 C 193.144 350.853,192.777 351.447,193.180 351.933 C 193.463 352.274,193.682 352.224,194.329 351.671 C 195.075 351.033,195.687 350.902,196.357 351.237 C 196.647 351.382,196.909 351.500,196.940 351.500 C 196.970 351.500,197.082 351.157,197.187 350.738 C 197.293 350.319,197.581 349.777,197.829 349.533 C 198.219 349.148,198.261 349.012,198.147 348.503 C 198.075 348.181,197.970 347.560,197.915 347.125 L 197.813 346.333 196.903 346.333 C 196.097 346.333,195.971 346.380,195.805 346.745 M217.512 350.448 C 217.549 350.881,217.810 351.248,217.822 350.885 C 217.828 350.684,217.758 350.473,217.667 350.417 C 217.575 350.360,217.505 350.374,217.512 350.448 M183.365 352.314 C 183.014 352.530,183.326 353.413,183.932 353.918 C 184.244 354.178,184.500 354.491,184.500 354.612 C 184.500 354.734,184.580 354.833,184.679 354.833 C 184.777 354.833,184.968 354.944,185.103 355.080 C 185.239 355.215,185.480 355.421,185.640 355.538 C 186.268 355.997,187.003 357.498,186.865 358.042 C 186.848 358.110,186.908 358.167,187.000 358.167 C 187.092 358.167,187.167 358.279,187.167 358.417 C 187.167 358.554,187.273 358.667,187.403 358.667 C 187.533 358.667,187.738 358.892,187.860 359.167 C 187.982 359.442,188.176 359.667,188.291 359.667 C 188.406 359.667,188.500 359.784,188.500 359.927 C 188.500 360.069,188.575 360.140,188.667 360.083 C 188.758 360.027,188.833 360.051,188.833 360.137 C 188.833 360.290,188.946 360.346,189.848 360.647 C 190.715 360.935,190.816 360.219,189.961 359.852 C 188.834 359.369,188.167 358.725,188.167 358.121 C 188.167 357.837,188.022 357.450,187.845 357.261 C 187.383 356.766,186.500 355.029,186.497 354.608 C 186.493 353.926,186.245 353.755,185.845 354.155 L 185.483 354.517 184.658 353.826 C 183.872 353.168,183.763 353.002,183.818 352.554 C 183.851 352.288,183.612 352.161,183.365 352.314 M199.292 358.594 C 198.856 358.821,198.500 359.039,198.500 359.078 C 198.500 359.190,199.834 358.566,200.045 358.355 C 200.312 358.088,200.189 358.127,199.292 358.594 M205.500 364.325 C 205.500 364.427,205.606 364.551,205.735 364.601 C 205.864 364.650,206.060 364.910,206.172 365.179 C 206.283 365.447,206.458 365.668,206.562 365.669 C 206.665 365.670,207.725 365.708,208.917 365.753 C 210.899 365.827,211.041 365.814,210.583 365.591 C 210.308 365.458,209.930 365.345,209.744 365.341 C 209.557 365.337,208.769 365.115,207.994 364.849 C 206.189 364.229,205.500 364.084,205.500 364.325 " stroke="none" fill="#fbfbfb" fill-rule="evenodd"></path><path id="path2" d="M217.417 149.276 C 157.951 153.284,123.939 219.731,159.299 262.818 C 192.633 303.437,263.030 290.803,284.586 240.333 C 304.424 193.885,268.955 145.802,217.417 149.276 M234.205 166.559 C 238.991 167.774,241.298 170.613,241.074 175.015 C 240.966 177.155,240.978 177.289,241.371 178.167 C 242.966 181.734,244.686 182.860,249.263 183.335 C 250.145 183.426,250.918 183.532,250.980 183.571 C 251.042 183.609,251.728 183.726,252.505 183.831 C 256.927 184.426,261.626 187.161,263.891 190.458 C 265.459 192.739,265.385 195.738,263.667 199.498 C 260.833 205.703,261.875 210.303,267.086 214.590 C 271.084 217.878,271.671 219.191,271.701 224.917 C 271.732 230.558,270.126 233.139,265.575 234.765 C 262.629 235.818,261.537 236.829,260.761 239.223 C 259.685 242.543,259.638 243.874,260.505 246.537 C 261.419 249.343,261.556 251.401,260.939 253.038 C 259.533 256.767,257.855 259.053,256.250 259.430 C 254.174 259.916,252.218 262.239,251.992 264.486 C 251.673 267.647,249.628 270.555,246.745 271.949 C 244.186 273.186,242.283 273.125,238.750 271.693 C 236.452 270.761,235.351 270.592,234.384 271.022 C 234.000 271.193,233.606 271.333,233.508 271.333 C 233.411 271.333,232.751 271.824,232.041 272.423 C 214.892 286.895,190.611 281.507,180.015 260.879 C 179.263 259.413,178.998 259.064,178.112 258.363 C 177.546 257.916,176.543 257.062,175.883 256.467 C 174.676 255.379,174.172 255.015,171.417 253.240 C 166.603 250.140,164.834 248.272,163.294 244.662 C 160.980 239.240,161.059 236.427,163.758 228.171 C 165.805 221.907,165.664 218.179,163.177 212.833 C 161.745 209.755,161.087 207.359,160.659 203.675 C 160.217 199.867,160.601 198.764,163.333 195.992 C 166.032 193.255,168.237 192.123,172.083 191.499 C 176.956 190.709,179.489 189.903,180.878 188.700 C 183.330 186.578,183.936 185.357,184.931 180.539 C 185.647 177.073,187.724 174.051,190.899 171.856 C 193.528 170.039,194.947 169.611,198.074 169.695 L 200.132 169.750 201.274 170.551 C 201.903 170.992,203.054 171.846,203.833 172.450 C 208.344 175.941,216.074 175.037,220.972 170.445 C 224.965 166.700,229.506 165.367,234.205 166.559 M230.792 168.621 C 231.090 168.658,231.577 168.658,231.875 168.621 C 232.173 168.584,231.929 168.553,231.333 168.553 C 230.737 168.553,230.494 168.584,230.792 168.621 M222.333 172.417 C 221.928 172.829,221.635 173.167,221.681 173.167 C 221.726 173.167,222.095 172.829,222.500 172.417 C 222.905 172.004,223.199 171.667,223.153 171.667 C 223.107 171.667,222.738 172.004,222.333 172.417 M190.242 175.542 L 189.583 176.250 190.292 175.591 C 190.950 174.978,191.077 174.833,190.950 174.833 C 190.923 174.833,190.605 175.152,190.242 175.542 M209.625 177.121 C 209.923 177.158,210.410 177.158,210.708 177.121 C 211.006 177.084,210.762 177.053,210.167 177.053 C 209.571 177.053,209.327 177.084,209.625 177.121 M262.552 194.583 C 262.553 195.133,262.584 195.338,262.621 195.039 C 262.658 194.739,262.657 194.289,262.619 194.039 C 262.581 193.788,262.551 194.033,262.552 194.583 M164.824 197.792 L 164.250 198.417 164.875 197.842 C 165.457 197.308,165.577 197.167,165.449 197.167 C 165.422 197.167,165.140 197.448,164.824 197.792 M162.883 201.500 C 162.883 202.004,162.915 202.210,162.953 201.958 C 162.991 201.706,162.991 201.294,162.953 201.042 C 162.915 200.790,162.883 200.996,162.883 201.500 M187.746 214.375 L 186.417 215.750 187.792 214.421 C 189.069 213.186,189.243 213.000,189.121 213.000 C 189.096 213.000,188.477 213.619,187.746 214.375 M263.500 214.750 C 263.998 215.254,264.443 215.667,264.489 215.667 C 264.534 215.667,264.165 215.254,263.667 214.750 C 263.169 214.246,262.724 213.833,262.678 213.833 C 262.632 213.833,263.002 214.246,263.500 214.750 M267.417 218.167 C 267.775 218.533,268.105 218.833,268.151 218.833 C 268.197 218.833,267.941 218.533,267.583 218.167 C 267.225 217.800,266.895 217.500,266.849 217.500 C 266.803 217.500,267.059 217.800,267.417 218.167 M260.324 234.958 L 259.750 235.583 260.375 235.009 C 260.719 234.693,261.000 234.412,261.000 234.384 C 261.000 234.257,260.859 234.377,260.324 234.958 M243.895 238.500 C 243.895 239.463,243.923 239.856,243.956 239.375 C 243.990 238.894,243.990 238.106,243.956 237.625 C 243.923 237.144,243.895 237.537,243.895 238.500 M176.052 241.583 C 176.053 242.133,176.084 242.338,176.121 242.039 C 176.158 241.739,176.157 241.289,176.119 241.039 C 176.081 240.788,176.051 241.033,176.052 241.583 M243.729 243.417 C 243.729 244.425,243.757 244.816,243.790 244.286 C 243.823 243.755,243.823 242.930,243.789 242.452 C 243.756 241.974,243.729 242.408,243.729 243.417 M176.052 245.083 C 176.053 245.633,176.084 245.838,176.121 245.539 C 176.158 245.239,176.157 244.789,176.119 244.539 C 176.081 244.288,176.051 244.533,176.052 245.083 M243.879 247.500 C 243.879 247.912,243.911 248.081,243.951 247.875 C 243.991 247.669,243.991 247.331,243.951 247.125 C 243.911 246.919,243.879 247.088,243.879 247.500 M245.158 260.125 L 244.583 260.750 245.208 260.176 C 245.790 259.641,245.910 259.500,245.783 259.500 C 245.755 259.500,245.474 259.781,245.158 260.125 M249.545 264.167 C 249.545 264.579,249.578 264.748,249.618 264.542 C 249.657 264.335,249.657 263.998,249.618 263.792 C 249.578 263.585,249.545 263.754,249.545 264.167 M164.083 276.726 C 152.685 279.583,146.130 302.541,152.851 316.065 C 157.042 324.498,164.666 325.312,170.999 318.001 L 171.797 317.080 171.568 315.870 C 171.181 313.824,170.993 309.938,171.166 307.572 C 171.424 304.044,171.478 304.167,169.994 304.919 C 169.072 305.387,169.001 305.610,169.412 306.750 C 170.108 308.684,169.371 310.833,168.011 310.833 C 167.584 310.833,167.548 311.456,167.917 312.500 C 169.002 315.575,165.570 318.373,162.920 316.575 C 162.074 316.001,161.793 316.055,160.754 316.996 C 157.801 319.671,154.738 317.140,155.583 312.724 C 155.991 310.592,155.617 309.822,153.902 309.266 C 151.781 308.579,151.255 305.956,152.776 303.657 L 153.223 302.981 152.939 301.776 C 152.783 301.113,152.472 300.273,152.249 299.910 C 151.515 298.714,151.718 297.424,152.873 295.955 C 153.593 295.039,153.911 293.683,153.648 292.656 C 153.192 290.877,154.404 289.232,156.688 288.530 C 160.209 287.447,159.994 287.612,159.415 286.427 C 157.476 282.465,163.774 280.380,166.109 284.211 C 166.788 285.326,167.343 285.669,168.662 285.789 L 169.604 285.874 170.594 284.961 C 172.647 283.066,174.769 283.029,175.529 284.875 C 176.759 287.865,177.501 288.471,178.499 287.303 C 178.758 286.999,179.511 286.127,180.170 285.365 C 180.830 284.603,181.342 283.957,181.310 283.928 C 181.277 283.900,180.108 283.300,178.711 282.596 C 175.942 281.198,172.671 279.268,170.278 277.620 L 168.750 276.567 166.833 276.542 C 165.762 276.529,164.549 276.610,164.083 276.726 M183.650 286.792 C 169.194 301.624,172.562 327.953,190.049 336.823 C 202.233 343.003,216.543 338.297,224.895 325.364 C 227.940 320.648,229.955 311.892,229.480 305.436 C 229.100 300.279,227.556 295.301,225.036 291.108 L 224.250 289.800 223.417 289.893 C 222.958 289.944,221.627 290.077,220.458 290.188 L 218.333 290.391 218.333 291.035 C 218.333 292.416,219.058 293.243,221.312 294.434 C 226.139 296.984,227.222 301.723,223.745 305.083 C 221.582 307.174,221.379 308.516,223.083 309.457 C 226.018 311.078,226.129 314.215,223.347 316.909 C 222.577 317.654,222.546 317.847,222.914 319.583 C 223.050 320.225,223.162 320.841,223.164 320.953 C 223.170 321.396,222.092 322.335,220.811 323.002 L 219.458 323.705 219.598 324.811 C 220.095 328.741,219.275 329.667,215.301 329.667 L 212.897 329.667 212.386 330.166 C 212.106 330.440,211.597 331.209,211.256 331.874 C 209.524 335.254,205.655 335.692,202.236 332.895 C 200.479 331.458,198.407 331.484,196.230 332.970 C 191.240 336.376,187.167 334.137,187.167 327.987 C 187.167 325.714,186.289 325.031,182.917 324.682 C 178.573 324.232,176.867 321.708,178.313 317.870 C 179.061 315.886,178.865 314.301,177.526 311.500 C 176.294 308.923,177.585 305.212,180.560 302.776 C 182.012 301.588,182.453 299.584,181.667 297.750 C 181.236 296.745,181.236 295.510,181.667 294.666 C 182.046 293.922,184.877 291.570,186.198 290.901 C 187.515 290.233,188.814 289.352,189.066 288.954 C 189.424 288.390,189.564 287.258,189.301 287.057 C 189.106 286.907,185.211 285.498,184.996 285.499 C 184.948 285.500,184.342 286.081,183.650 286.792 M159.039 299.333 C 159.039 299.654,159.073 299.785,159.115 299.625 C 159.157 299.465,159.157 299.202,159.115 299.042 C 159.073 298.881,159.039 299.012,159.039 299.333 M187.885 311.250 C 187.886 311.800,187.917 312.005,187.954 311.705 C 187.991 311.406,187.990 310.956,187.952 310.705 C 187.914 310.455,187.884 310.700,187.885 311.250 M191.794 315.951 C 192.001 315.991,192.301 315.990,192.460 315.948 C 192.620 315.906,192.450 315.874,192.083 315.875 C 191.717 315.877,191.586 315.911,191.794 315.951 M205.583 342.651 L 205.083 342.762 205.616 342.952 C 205.961 343.076,206.266 343.367,206.484 343.780 C 206.668 344.130,207.080 344.604,207.399 344.833 C 208.258 345.450,208.616 346.484,208.138 346.962 C 207.793 347.307,208.254 347.978,209.077 348.331 C 211.084 349.191,211.990 351.008,210.920 352.024 C 210.394 352.522,210.394 352.842,210.917 353.334 C 211.778 354.142,211.923 355.874,211.198 356.685 C 210.116 357.897,208.167 357.376,208.167 355.874 C 208.167 355.096,207.933 354.833,207.242 354.833 C 205.502 354.833,204.766 353.695,205.485 352.116 C 205.967 351.057,205.362 349.667,204.419 349.667 C 203.401 349.667,203.002 347.477,203.750 346.000 C 204.376 344.764,204.293 343.520,203.561 343.187 C 202.945 342.906,201.889 342.949,201.770 343.259 C 200.035 347.779,204.339 356.745,209.368 359.086 C 215.528 361.954,214.958 350.439,208.631 344.200 C 206.957 342.549,206.677 342.407,205.583 342.651 M196.171 343.076 C 196.050 343.301,195.569 343.739,195.101 344.050 C 189.917 347.493,189.088 355.250,193.904 355.250 C 195.407 355.250,196.338 354.894,197.870 353.733 C 198.524 353.238,199.166 352.833,199.297 352.833 C 199.459 352.833,199.497 352.740,199.415 352.542 C 199.349 352.381,199.160 351.875,198.994 351.417 C 198.642 350.444,198.468 350.410,198.287 351.278 C 198.034 352.498,197.270 352.906,196.058 352.468 C 195.549 352.284,195.462 352.308,194.848 352.802 C 193.926 353.542,193.165 353.532,192.400 352.767 C 191.225 351.592,191.985 349.740,193.781 349.401 C 194.521 349.261,194.904 348.797,194.760 348.214 C 194.488 347.104,194.473 346.800,194.670 346.325 C 195.003 345.522,195.587 345.167,196.574 345.167 C 197.704 345.167,197.942 344.952,198.075 343.814 L 198.185 342.879 197.655 342.773 C 196.715 342.585,196.399 342.649,196.171 343.076 " stroke="none" fill="#359fff" fill-rule="evenodd"></path><path id="path3" d="M228.250 168.980 C 225.999 169.536,224.817 170.235,222.577 172.333 C 218.713 175.953,211.551 177.924,206.720 176.697 C 204.710 176.186,204.217 175.897,200.568 173.083 L 199.271 172.083 197.543 172.115 C 192.618 172.203,188.409 176.044,187.257 181.500 C 186.326 185.908,185.525 187.606,183.389 189.700 C 181.548 191.504,180.431 192.160,178.250 192.718 C 175.168 193.507,174.840 193.574,171.589 194.078 C 168.659 194.532,165.256 196.857,163.387 199.682 C 162.349 201.250,163.509 208.041,165.486 211.972 C 167.844 216.662,168.275 222.215,166.664 227.167 C 163.410 237.173,163.341 238.984,166.002 244.617 C 167.190 247.132,168.924 248.761,173.500 251.661 C 174.554 252.328,175.885 253.242,176.458 253.690 C 177.031 254.139,177.500 254.448,177.500 254.377 C 177.500 254.306,177.425 253.988,177.334 253.671 C 174.854 245.022,175.919 234.074,180.086 225.375 C 185.688 213.683,195.321 206.263,207.667 204.132 C 209.325 203.846,215.345 203.851,217.000 204.140 C 221.552 204.935,226.374 206.386,230.877 208.316 C 236.274 210.630,240.816 217.653,243.174 227.333 C 243.682 229.417,243.872 232.746,243.861 239.333 C 243.844 249.937,243.906 250.306,246.090 252.504 C 248.356 254.785,248.359 256.061,246.104 259.122 C 245.179 260.377,244.446 260.930,242.724 261.671 C 242.005 261.980,241.141 262.403,240.805 262.610 C 240.192 262.988,237.945 265.800,237.412 266.856 C 237.256 267.164,236.939 267.619,236.708 267.866 L 236.288 268.316 236.769 268.414 C 237.450 268.552,238.308 268.828,239.083 269.158 C 240.767 269.873,241.154 270.008,242.215 270.245 C 245.612 271.005,249.075 268.094,249.526 264.098 C 249.866 261.083,252.379 258.034,255.315 257.073 C 256.469 256.696,257.017 255.933,258.404 252.771 C 258.949 251.527,258.976 250.059,258.484 248.416 C 257.481 245.072,257.468 245.001,257.544 243.000 C 257.750 237.557,259.992 234.080,264.223 232.640 C 268.732 231.106,269.880 228.621,269.100 222.082 C 268.778 219.384,268.434 218.878,265.016 216.077 C 259.587 211.627,258.264 205.359,261.342 198.667 C 262.684 195.749,262.901 193.446,261.964 192.051 C 259.501 188.379,255.339 186.410,248.667 185.759 C 241.838 185.093,237.328 179.838,238.659 174.099 C 239.446 170.707,233.365 167.715,228.250 168.980 M160.873 294.758 C 158.993 296.075,158.495 301.915,160.100 303.822 C 160.843 304.705,161.645 304.335,162.388 302.764 C 163.963 299.439,162.819 293.395,160.873 294.758 M200.333 296.684 C 195.561 297.281,189.807 302.988,188.346 308.573 C 186.731 314.745,190.432 317.622,196.250 314.718 C 205.844 309.928,209.091 295.588,200.333 296.684 " stroke="none" fill="#5afff7" fill-rule="evenodd"></path><path id="path4" d="M158.500 66.914 C 158.500 66.969,158.784 67.405,159.132 67.882 C 159.479 68.359,160.133 69.350,160.586 70.083 C 161.038 70.817,161.972 72.093,162.662 72.919 C 164.988 75.705,166.312 77.860,168.291 82.083 C 170.649 87.114,171.475 89.598,172.087 93.500 C 172.411 95.567,173.248 99.833,173.608 101.250 C 174.173 103.474,176.680 108.459,178.282 110.541 C 179.453 112.064,184.327 116.894,185.333 117.530 C 186.729 118.411,188.977 119.598,190.438 120.225 C 191.159 120.535,193.063 121.428,194.667 122.210 C 197.469 123.575,199.855 124.676,201.234 125.239 C 203.812 126.292,205.750 127.830,209.261 131.612 C 212.547 135.151,213.251 137.215,213.136 142.975 L 213.072 146.200 213.828 146.107 C 214.243 146.056,215.108 145.965,215.750 145.906 L 216.917 145.798 216.932 143.440 C 216.974 136.997,219.815 133.103,226.375 130.496 C 227.131 130.195,228.725 129.503,229.917 128.957 C 231.108 128.411,232.871 127.707,233.833 127.392 C 239.990 125.381,246.364 121.829,248.190 119.392 C 252.492 113.651,255.582 106.140,256.579 99.000 C 256.727 97.946,257.031 95.996,257.256 94.667 C 257.481 93.337,257.743 91.350,257.839 90.250 C 258.131 86.883,258.625 84.888,259.726 82.620 C 260.026 82.004,260.248 81.500,260.222 81.500 C 260.195 81.500,259.441 81.791,258.545 82.146 C 256.806 82.837,253.578 83.905,251.449 84.495 C 250.028 84.889,244.044 87.221,242.632 87.931 C 239.277 89.618,232.937 94.571,230.697 97.255 C 226.658 102.094,225.308 106.878,225.267 116.500 C 225.248 121.050,225.146 121.546,224.097 122.186 C 221.535 123.748,220.377 120.438,221.058 113.500 C 221.211 111.946,220.237 106.664,219.169 103.250 C 218.911 102.425,218.509 101.066,218.275 100.229 C 217.981 99.180,217.477 98.043,216.649 96.562 C 210.097 84.855,204.339 78.710,196.597 75.160 C 194.664 74.273,192.258 73.135,191.250 72.629 C 187.126 70.560,183.490 69.668,177.833 69.338 C 175.253 69.188,168.695 68.457,167.984 68.241 C 167.838 68.197,166.676 68.093,165.401 68.011 C 163.390 67.881,159.087 67.177,158.650 66.906 C 158.567 66.855,158.500 66.859,158.500 66.914 M194.541 92.807 C 195.818 93.800,197.632 95.592,198.616 96.833 C 199.088 97.429,200.099 98.704,200.862 99.667 C 202.469 101.693,204.260 104.969,205.282 107.750 C 205.977 109.640,203.870 111.184,202.346 109.902 C 202.064 109.665,201.833 109.407,201.833 109.329 C 201.833 107.874,195.958 98.887,194.118 97.525 C 191.478 95.573,190.548 94.195,191.103 93.059 C 191.735 91.768,193.080 91.669,194.541 92.807 M241.882 101.336 C 242.549 101.861,242.746 102.671,242.437 103.626 C 242.297 104.061,242.024 105.048,241.830 105.819 C 241.172 108.445,237.525 114.112,235.967 114.930 C 233.789 116.073,231.956 113.461,233.793 111.833 C 234.441 111.259,237.501 106.792,237.818 105.957 C 237.907 105.722,238.134 104.884,238.321 104.094 C 238.992 101.272,240.407 100.176,241.882 101.336 M226.375 145.782 C 226.535 145.823,226.798 145.823,226.958 145.782 C 227.119 145.740,226.987 145.705,226.667 145.705 C 226.346 145.705,226.215 145.740,226.375 145.782 M141.372 224.000 C 141.372 224.321,141.406 224.452,141.448 224.292 C 141.490 224.131,141.490 223.869,141.448 223.708 C 141.406 223.548,141.372 223.679,141.372 224.000 M239.562 238.333 C 239.562 239.296,239.589 239.690,239.623 239.208 C 239.657 238.727,239.657 237.940,239.623 237.458 C 239.589 236.977,239.562 237.371,239.562 238.333 M180.385 241.583 C 180.386 242.133,180.417 242.338,180.454 242.039 C 180.491 241.739,180.490 241.289,180.452 241.039 C 180.414 240.788,180.384 241.033,180.385 241.583 M239.397 243.250 C 239.397 244.350,239.424 244.778,239.457 244.202 C 239.490 243.625,239.489 242.725,239.456 242.202 C 239.423 241.678,239.397 242.150,239.397 243.250 M180.387 245.167 C 180.387 245.762,180.417 246.006,180.454 245.708 C 180.491 245.410,180.491 244.923,180.454 244.625 C 180.417 244.327,180.387 244.571,180.387 245.167 M226.458 244.621 C 226.756 244.658,227.244 244.658,227.542 244.621 C 227.840 244.584,227.596 244.553,227.000 244.553 C 226.404 244.553,226.160 244.584,226.458 244.621 M223.042 244.782 C 223.202 244.823,223.465 244.823,223.625 244.782 C 223.785 244.740,223.654 244.705,223.333 244.705 C 223.012 244.705,222.881 244.740,223.042 244.782 M219.125 244.951 C 219.331 244.991,219.669 244.991,219.875 244.951 C 220.081 244.911,219.912 244.879,219.500 244.879 C 219.088 244.879,218.919 244.911,219.125 244.951 M215.458 245.121 C 215.756 245.158,216.244 245.158,216.542 245.121 C 216.840 245.084,216.596 245.053,216.000 245.053 C 215.404 245.053,215.160 245.084,215.458 245.121 M230.372 246.167 C 230.372 246.487,230.406 246.619,230.448 246.458 C 230.490 246.298,230.490 246.035,230.448 245.875 C 230.406 245.715,230.372 245.846,230.372 246.167 M239.548 247.417 C 239.549 247.875,239.581 248.043,239.620 247.789 C 239.658 247.536,239.657 247.161,239.617 246.956 C 239.578 246.751,239.546 246.958,239.548 247.417 M226.792 247.954 C 227.090 247.991,227.577 247.991,227.875 247.954 C 228.173 247.917,227.929 247.887,227.333 247.887 C 226.737 247.887,226.494 247.917,226.792 247.954 M223.460 248.118 C 223.668 248.158,223.968 248.156,224.127 248.115 C 224.286 248.073,224.117 248.040,223.750 248.042 C 223.383 248.044,223.253 248.078,223.460 248.118 M219.542 248.282 C 219.702 248.323,219.965 248.323,220.125 248.282 C 220.285 248.240,220.154 248.205,219.833 248.205 C 219.512 248.205,219.381 248.240,219.542 248.282 M215.792 248.454 C 216.090 248.491,216.577 248.491,216.875 248.454 C 217.173 248.417,216.929 248.387,216.333 248.387 C 215.737 248.387,215.494 248.417,215.792 248.454 M212.460 248.618 C 212.668 248.658,212.968 248.656,213.127 248.615 C 213.286 248.573,213.117 248.540,212.750 248.542 C 212.383 248.544,212.253 248.578,212.460 248.618 M234.355 263.246 C 233.976 263.657,233.671 264.125,233.677 264.288 C 233.685 264.498,233.735 264.464,233.853 264.167 C 233.944 263.938,234.291 263.469,234.626 263.125 C 234.961 262.781,235.191 262.500,235.138 262.500 C 235.086 262.500,234.733 262.836,234.355 263.246 M190.000 267.750 C 190.498 268.254,190.943 268.667,190.989 268.667 C 191.034 268.667,190.665 268.254,190.167 267.750 C 189.669 267.246,189.224 266.833,189.178 266.833 C 189.132 266.833,189.502 267.246,190.000 267.750 M209.625 276.287 C 209.923 276.324,210.410 276.324,210.708 276.287 C 211.006 276.250,210.762 276.220,210.167 276.220 C 209.571 276.220,209.327 276.250,209.625 276.287 M172.242 286.542 L 171.583 287.250 172.292 286.591 C 172.950 285.978,173.077 285.833,172.950 285.833 C 172.923 285.833,172.605 286.152,172.242 286.542 M207.125 290.451 C 207.331 290.491,207.669 290.491,207.875 290.451 C 208.081 290.411,207.912 290.379,207.500 290.379 C 207.088 290.379,206.919 290.411,207.125 290.451 M211.458 290.624 C 212.215 290.655,213.452 290.655,214.208 290.624 C 214.965 290.593,214.346 290.568,212.833 290.568 C 211.321 290.568,210.702 290.593,211.458 290.624 M216.052 291.417 C 216.053 291.967,216.084 292.172,216.121 291.872 C 216.158 291.572,216.157 291.122,216.119 290.872 C 216.081 290.622,216.051 290.867,216.052 291.417 M158.991 293.625 L 158.417 294.250 159.042 293.676 C 159.623 293.141,159.743 293.000,159.616 293.000 C 159.588 293.000,159.307 293.281,158.991 293.625 M206.667 295.083 C 206.978 295.404,207.270 295.667,207.315 295.667 C 207.361 295.667,207.144 295.404,206.833 295.083 C 206.522 294.762,206.230 294.500,206.185 294.500 C 206.139 294.500,206.356 294.762,206.667 295.083 M191.073 297.708 L 190.583 298.250 191.125 297.760 C 191.630 297.304,191.743 297.167,191.615 297.167 C 191.586 297.167,191.342 297.410,191.073 297.708 M165.224 298.917 C 165.224 299.650,165.254 299.929,165.289 299.537 C 165.324 299.145,165.324 298.545,165.288 298.204 C 165.252 297.863,165.223 298.183,165.224 298.917 M189.573 299.208 L 189.083 299.750 189.625 299.260 C 190.130 298.804,190.243 298.667,190.115 298.667 C 190.086 298.667,189.842 298.910,189.573 299.208 M209.042 301.250 C 209.044 301.617,209.078 301.747,209.118 301.540 C 209.158 301.332,209.156 301.032,209.115 300.873 C 209.073 300.714,209.040 300.883,209.042 301.250 M170.792 302.284 C 170.998 302.324,171.335 302.324,171.542 302.284 C 171.748 302.245,171.579 302.212,171.167 302.212 C 170.754 302.212,170.585 302.245,170.792 302.284 M162.991 305.458 L 162.417 306.083 163.042 305.509 C 163.623 304.974,163.743 304.833,163.616 304.833 C 163.588 304.833,163.307 305.115,162.991 305.458 M160.458 306.451 C 160.665 306.491,161.002 306.491,161.208 306.451 C 161.415 306.411,161.246 306.379,160.833 306.379 C 160.421 306.379,160.252 306.411,160.458 306.451 M201.324 314.958 L 200.750 315.583 201.375 315.009 C 201.719 314.693,202.000 314.412,202.000 314.384 C 202.000 314.257,201.859 314.377,201.324 314.958 M159.324 315.125 L 158.750 315.750 159.375 315.176 C 159.957 314.641,160.077 314.500,159.949 314.500 C 159.922 314.500,159.640 314.781,159.324 315.125 M181.052 315.917 C 181.053 316.467,181.084 316.672,181.121 316.372 C 181.158 316.072,181.157 315.622,181.119 315.372 C 181.081 315.122,181.051 315.367,181.052 315.917 M199.906 316.208 L 199.417 316.750 199.958 316.260 C 200.463 315.804,200.577 315.667,200.448 315.667 C 200.419 315.667,200.175 315.910,199.906 316.208 M186.583 317.333 C 186.941 317.700,187.272 318.000,187.318 318.000 C 187.363 318.000,187.108 317.700,186.750 317.333 C 186.392 316.967,186.062 316.667,186.016 316.667 C 185.970 316.667,186.225 316.967,186.583 317.333 M191.463 319.456 C 191.855 319.491,192.455 319.490,192.796 319.454 C 193.137 319.419,192.817 319.390,192.083 319.390 C 191.350 319.391,191.071 319.420,191.463 319.456 M107.788 319.653 C 106.776 319.755,106.543 320.004,107.275 320.200 C 108.014 320.397,109.167 320.060,109.167 319.646 C 109.167 319.566,109.073 319.513,108.958 319.528 C 108.844 319.543,108.317 319.600,107.788 319.653 M180.167 321.052 C 180.167 321.081,180.410 321.325,180.708 321.594 L 181.250 322.083 180.760 321.542 C 180.304 321.037,180.167 320.923,180.167 321.052 M188.000 324.052 C 188.000 324.081,188.244 324.325,188.542 324.594 L 189.083 325.083 188.594 324.542 C 188.138 324.037,188.000 323.923,188.000 324.052 M215.960 328.118 C 216.168 328.158,216.468 328.156,216.627 328.115 C 216.786 328.073,216.617 328.040,216.250 328.042 C 215.883 328.044,215.753 328.078,215.960 328.118 M198.788 329.620 C 199.084 329.657,199.609 329.658,199.955 329.622 C 200.300 329.586,200.058 329.555,199.417 329.555 C 198.775 329.554,198.492 329.583,198.788 329.620 M205.336 344.625 C 205.338 344.959,205.379 345.019,205.487 344.848 C 205.569 344.719,205.597 344.513,205.550 344.390 C 205.415 344.038,205.333 344.127,205.336 344.625 M196.948 346.289 C 197.682 346.341,197.823 346.405,197.883 346.717 C 197.942 347.021,197.958 347.005,197.977 346.625 C 198.000 346.172,197.988 346.167,197.042 346.197 L 196.083 346.228 196.948 346.289 M210.180 350.824 C 210.173 350.957,209.962 351.294,209.712 351.574 L 209.258 352.083 209.816 351.560 C 210.125 351.270,210.333 350.936,210.283 350.810 C 210.211 350.628,210.190 350.630,210.180 350.824 M206.872 351.333 C 206.872 351.654,206.906 351.785,206.948 351.625 C 206.990 351.465,206.990 351.202,206.948 351.042 C 206.906 350.881,206.872 351.012,206.872 351.333 M209.209 355.417 C 209.211 355.783,209.245 355.914,209.285 355.706 C 209.324 355.499,209.323 355.199,209.281 355.040 C 209.239 354.880,209.207 355.050,209.209 355.417 " stroke="none" fill="#97f3a5" fill-rule="evenodd"></path></g></svg>