<svg id="svg" version="1.1" xmlns="http://www.w3.org/2000/svg" xmlns:xlink="http://www.w3.org/1999/xlink" width="400" height="400" viewBox="0, 0, 400,400"><g id="svgg"><path id="path0" d="M218.167 149.277 C 172.344 152.451,138.511 192.258,146.017 234.167 C 152.730 271.649,191.754 294.742,231.500 284.753 C 279.867 272.598,304.762 220.375,281.049 180.814 C 268.664 160.151,243.485 147.523,218.167 149.277 M234.083 166.502 C 237.241 167.285,239.477 168.948,240.692 171.417 L 241.185 172.417 241.073 174.712 C 240.815 180.052,243.405 182.739,249.386 183.332 C 250.286 183.421,251.076 183.527,251.141 183.567 C 251.206 183.608,251.869 183.724,252.614 183.826 C 257.397 184.481,262.653 187.811,264.353 191.264 C 265.448 193.489,265.254 196.071,263.746 199.333 C 260.881 205.530,261.866 210.221,266.911 214.408 C 270.337 217.251,271.174 218.468,271.493 221.068 C 272.500 229.270,270.846 233.022,265.417 234.849 C 263.930 235.349,262.175 236.477,261.622 237.287 C 260.054 239.585,259.629 243.863,260.657 247.000 C 261.172 248.572,261.231 248.945,261.238 250.667 L 261.246 252.583 260.401 254.430 C 259.012 257.463,257.633 259.163,256.345 259.431 C 254.244 259.869,252.245 262.190,252.011 264.463 C 251.695 267.534,249.647 270.560,247.000 271.867 C 244.114 273.293,242.758 273.265,238.755 271.698 C 235.571 270.451,234.215 270.614,231.958 272.516 C 215.007 286.798,190.516 281.459,180.184 261.231 C 179.235 259.372,179.109 259.208,177.833 258.172 C 177.329 257.763,176.434 256.984,175.844 256.441 C 175.254 255.898,173.491 254.615,171.927 253.589 C 166.127 249.788,164.670 248.230,163.025 244.073 C 160.977 238.900,161.112 236.206,163.834 227.833 C 165.762 221.905,165.565 217.607,163.143 212.786 C 160.763 208.050,159.781 200.939,161.178 198.559 C 161.982 197.188,164.812 194.397,166.250 193.557 C 168.711 192.118,169.123 191.970,172.000 191.480 C 181.259 189.903,183.237 188.320,184.751 181.276 C 185.528 177.657,186.213 176.309,188.464 173.971 C 193.136 169.119,198.575 168.124,202.500 171.403 C 205.541 173.945,207.024 174.564,210.083 174.575 C 213.548 174.586,219.508 172.390,220.724 170.653 C 221.019 170.232,222.836 168.772,223.976 168.040 C 226.541 166.394,230.943 165.724,234.083 166.502 M230.875 168.619 C 231.127 168.658,231.540 168.658,231.792 168.619 C 232.044 168.581,231.838 168.550,231.333 168.550 C 230.829 168.550,230.623 168.581,230.875 168.619 M222.333 172.417 C 221.928 172.829,221.635 173.167,221.681 173.167 C 221.726 173.167,222.095 172.829,222.500 172.417 C 222.905 172.004,223.199 171.667,223.153 171.667 C 223.107 171.667,222.738 172.004,222.333 172.417 M209.625 177.121 C 209.923 177.158,210.410 177.158,210.708 177.121 C 211.006 177.084,210.762 177.053,210.167 177.053 C 209.571 177.053,209.327 177.084,209.625 177.121 M263.500 214.719 C 263.500 214.748,263.744 214.991,264.042 215.260 L 264.583 215.750 264.094 215.208 C 263.638 214.703,263.500 214.590,263.500 214.719 M243.895 238.500 C 243.895 239.463,243.923 239.856,243.956 239.375 C 243.990 238.894,243.990 238.106,243.956 237.625 C 243.923 237.144,243.895 237.537,243.895 238.500 M243.726 243.417 C 243.725 244.242,243.754 244.600,243.788 244.213 C 243.823 243.827,243.824 243.152,243.789 242.713 C 243.755 242.275,243.726 242.592,243.726 243.417 M249.539 264.000 C 249.539 264.321,249.573 264.452,249.615 264.292 C 249.657 264.131,249.657 263.869,249.615 263.708 C 249.573 263.548,249.539 263.679,249.539 264.000 M164.000 276.757 C 156.332 278.834,150.181 290.484,150.169 302.953 C 150.153 320.535,161.435 328.910,170.759 318.238 L 171.768 317.083 171.564 316.000 C 171.012 313.057,170.914 309.543,171.277 305.625 C 171.398 304.313,171.365 304.294,170.042 304.911 C 169.064 305.366,168.967 305.647,169.417 306.724 C 170.136 308.447,169.477 310.576,168.125 310.897 C 167.591 311.024,167.570 311.199,167.936 312.457 C 168.875 315.689,165.270 318.608,162.852 316.573 C 162.168 315.998,161.764 316.063,160.868 316.893 C 159.525 318.138,158.551 318.330,157.170 317.625 C 155.452 316.747,155.191 315.802,155.579 311.868 C 155.723 310.406,155.311 309.500,154.502 309.500 C 152.144 309.500,151.059 306.051,152.698 303.769 C 153.188 303.087,153.031 301.514,152.339 300.151 C 151.540 298.579,151.637 297.553,152.718 296.136 C 153.427 295.208,153.910 293.556,153.663 292.907 C 152.985 291.125,154.334 289.183,156.736 288.482 C 159.816 287.583,160.016 287.486,159.711 287.046 C 158.025 284.619,159.447 282.247,162.585 282.252 C 164.551 282.255,165.235 282.705,166.548 284.857 C 166.836 285.329,168.038 285.833,168.874 285.833 C 169.525 285.833,169.914 285.606,171.050 284.559 C 172.797 282.950,174.745 283.142,175.583 285.008 C 176.398 286.820,176.945 287.751,177.226 287.805 C 177.812 287.918,178.277 287.667,178.784 286.963 C 179.066 286.571,179.765 285.741,180.336 285.118 C 180.908 284.496,181.347 283.959,181.313 283.926 C 181.278 283.892,180.650 283.582,179.917 283.236 C 176.884 281.807,172.799 279.424,170.128 277.527 L 168.839 276.612 166.878 276.561 C 165.517 276.525,164.636 276.585,164.000 276.757 M183.533 286.903 C 173.854 296.984,171.777 313.648,178.689 325.764 C 187.015 340.358,204.573 343.851,217.634 333.511 C 219.037 332.400,221.990 329.492,222.551 328.669 C 222.832 328.255,223.340 327.579,223.679 327.167 C 225.763 324.630,226.950 321.889,228.296 316.500 L 229.399 312.083 229.404 307.917 C 229.412 301.092,228.278 296.696,225.109 291.281 L 224.250 289.811 223.250 289.931 C 222.700 289.997,221.387 290.133,220.333 290.234 L 218.417 290.417 218.367 291.094 C 218.284 292.224,219.085 293.200,220.917 294.199 C 226.309 297.142,227.471 302.042,223.551 305.305 C 221.654 306.883,221.461 308.586,223.082 309.447 C 226.007 311.000,226.200 313.820,223.578 316.672 C 222.566 317.773,222.566 317.775,222.914 319.417 C 223.050 320.058,223.162 320.712,223.164 320.869 C 223.169 321.402,222.119 322.354,220.787 323.023 L 219.464 323.689 219.606 324.803 C 220.115 328.772,219.322 329.667,215.299 329.667 L 212.899 329.667 212.383 330.208 C 212.100 330.506,211.636 331.216,211.352 331.784 C 209.743 335.010,206.180 335.687,202.893 333.391 C 200.371 331.630,198.334 331.399,196.726 332.692 C 191.827 336.633,187.167 334.333,187.167 327.975 C 187.167 325.741,185.643 324.667,182.476 324.667 C 178.963 324.667,176.845 321.255,178.294 317.931 C 178.948 316.432,178.890 315.075,178.085 313.000 C 177.747 312.129,177.358 311.117,177.220 310.750 C 176.776 309.568,176.982 308.177,177.904 306.125 C 178.719 304.313,178.862 304.133,180.630 302.714 C 181.968 301.640,182.388 299.663,181.667 297.833 C 180.572 295.056,181.828 293.417,187.667 290.007 C 189.366 289.014,190.051 287.406,188.976 286.931 C 188.274 286.621,185.157 285.500,184.998 285.500 C 184.933 285.500,184.273 286.131,183.533 286.903 M205.690 342.622 L 205.130 342.691 205.690 342.970 C 205.998 343.124,206.346 343.454,206.464 343.702 C 206.582 343.951,207.008 344.424,207.410 344.753 C 208.328 345.506,208.592 346.172,208.241 346.850 C 207.893 347.523,208.143 347.920,209.217 348.397 C 210.185 348.827,211.500 350.136,211.500 350.668 C 211.500 351.185,211.049 352.158,210.758 352.270 C 210.394 352.410,210.430 352.557,211.034 353.414 C 211.820 354.529,211.908 356.052,211.223 356.693 C 209.889 357.941,208.338 357.478,208.048 355.745 L 207.910 354.917 206.950 354.813 C 205.393 354.645,204.839 353.741,205.397 352.279 C 205.890 350.986,205.707 350.364,204.677 349.839 C 203.239 349.105,202.920 347.715,203.766 345.865 C 204.542 344.169,204.060 343.000,202.585 343.000 C 201.882 343.000,201.871 343.009,201.686 343.740 C 200.224 349.550,206.173 359.417,211.139 359.417 C 215.353 359.417,214.104 350.114,209.173 344.777 C 208.114 343.631,206.727 342.488,206.443 342.527 C 206.337 342.541,205.998 342.584,205.690 342.622 M196.249 343.002 C 196.191 343.186,195.713 343.629,195.188 343.986 C 190.759 346.993,189.212 353.300,192.495 354.958 C 194.058 355.748,195.829 355.273,198.270 353.410 C 198.686 353.093,199.129 352.833,199.255 352.833 C 199.450 352.833,198.860 350.806,198.585 350.529 C 198.555 350.500,198.410 350.892,198.262 351.400 C 198.105 351.939,197.860 352.397,197.674 352.496 C 197.265 352.715,196.218 352.717,196.083 352.500 C 195.901 352.206,195.432 352.334,194.840 352.840 C 193.240 354.208,191.231 352.597,192.061 350.612 C 192.325 349.980,192.842 349.600,193.787 349.346 C 194.640 349.116,194.906 348.804,194.758 348.209 C 194.241 346.142,194.833 345.195,196.738 345.042 C 197.926 344.947,197.896 344.978,198.076 343.648 L 198.180 342.879 197.548 342.775 C 196.554 342.610,196.363 342.644,196.249 343.002 " stroke="none" fill="#359fff" fill-rule="evenodd"></path><path id="path1" d="M228.250 168.980 C 225.999 169.536,224.817 170.235,222.577 172.333 C 218.713 175.953,211.551 177.924,206.720 176.697 C 204.710 176.186,204.217 175.897,200.568 173.083 L 199.271 172.083 197.543 172.115 C 192.618 172.203,188.409 176.044,187.257 181.500 C 186.326 185.908,185.525 187.606,183.389 189.700 C 181.548 191.504,180.431 192.160,178.250 192.718 C 175.168 193.507,174.840 193.574,171.589 194.078 C 168.659 194.532,165.256 196.857,163.387 199.682 C 162.349 201.250,163.509 208.041,165.486 211.972 C 167.844 216.662,168.275 222.215,166.664 227.167 C 163.410 237.173,163.341 238.984,166.002 244.617 C 167.190 247.132,168.924 248.761,173.500 251.661 C 174.554 252.328,175.885 253.242,176.458 253.690 C 177.031 254.139,177.500 254.448,177.500 254.377 C 177.500 254.306,177.425 253.988,177.334 253.671 C 174.854 245.022,175.919 234.074,180.086 225.375 C 185.688 213.683,195.321 206.263,207.667 204.132 C 209.325 203.846,215.345 203.851,217.000 204.140 C 221.552 204.935,226.374 206.386,230.877 208.316 C 236.274 210.630,240.816 217.653,243.174 227.333 C 243.682 229.417,243.872 232.746,243.861 239.333 C 243.844 249.937,243.906 250.306,246.090 252.504 C 248.356 254.785,248.359 256.061,246.104 259.122 C 245.179 260.377,244.446 260.930,242.724 261.671 C 242.005 261.980,241.141 262.403,240.805 262.610 C 240.192 262.988,237.945 265.800,237.412 266.856 C 237.256 267.164,236.939 267.619,236.708 267.866 L 236.288 268.316 236.769 268.414 C 237.450 268.552,238.308 268.828,239.083 269.158 C 240.767 269.873,241.154 270.008,242.215 270.245 C 245.612 271.005,249.075 268.094,249.526 264.098 C 249.866 261.083,252.379 258.034,255.315 257.073 C 256.469 256.696,257.017 255.933,258.404 252.771 C 258.949 251.527,258.976 250.059,258.484 248.416 C 257.481 245.072,257.468 245.001,257.544 243.000 C 257.750 237.557,259.992 234.080,264.223 232.640 C 268.732 231.106,269.880 228.621,269.100 222.082 C 268.778 219.384,268.434 218.878,265.016 216.077 C 259.587 211.627,258.264 205.359,261.342 198.667 C 262.684 195.749,262.901 193.446,261.964 192.051 C 259.501 188.379,255.339 186.410,248.667 185.759 C 241.838 185.093,237.328 179.838,238.659 174.099 C 239.446 170.707,233.365 167.715,228.250 168.980 M160.873 294.758 C 158.993 296.075,158.495 301.915,160.100 303.822 C 160.843 304.705,161.645 304.335,162.388 302.764 C 163.963 299.439,162.819 293.395,160.873 294.758 M200.333 296.684 C 195.561 297.281,189.807 302.988,188.346 308.573 C 186.731 314.745,190.432 317.622,196.250 314.718 C 205.844 309.928,209.091 295.588,200.333 296.684 " stroke="none" fill="#5afff7" fill-rule="evenodd"></path><path id="path2" d="M144.353 54.952 C 142.414 55.907,143.648 58.402,147.417 61.146 C 147.967 61.547,148.737 62.259,149.129 62.729 C 150.054 63.838,152.378 66.231,154.168 67.917 C 155.173 68.864,155.897 69.748,156.667 70.970 C 157.850 72.848,159.079 74.530,160.500 76.213 C 161.809 77.763,163.259 80.231,164.881 83.667 C 167.213 88.608,167.829 90.466,168.414 94.333 C 170.056 105.175,172.502 110.322,179.211 117.051 C 182.624 120.474,183.387 121.013,187.785 123.105 C 189.049 123.707,191.546 124.899,193.333 125.754 C 196.622 127.328,199.917 128.833,200.072 128.833 C 201.271 128.833,207.394 134.499,208.467 136.602 C 209.684 138.987,209.893 143.913,208.866 145.995 L 208.417 146.907 206.500 147.284 C 158.315 156.777,129.012 206.521,146.765 248.688 C 150.318 257.127,157.543 267.467,161.996 270.488 C 163.232 271.326,163.487 271.602,163.495 272.107 C 163.498 272.304,163.612 272.508,163.750 272.560 C 164.043 272.673,164.087 273.000,163.810 273.000 C 163.296 273.000,159.126 275.120,158.083 275.911 C 143.835 286.720,142.654 316.659,156.153 324.848 C 160.957 327.763,167.554 326.520,172.075 321.848 C 172.869 321.028,172.941 321.017,173.091 321.700 C 173.345 322.858,174.857 326.105,176.132 328.231 C 179.732 334.234,185.377 339.026,191.384 341.180 L 192.445 341.561 191.249 342.756 C 182.315 351.690,190.040 363.986,199.895 356.518 C 200.524 356.041,201.056 355.673,201.077 355.700 C 201.098 355.728,201.440 356.238,201.837 356.833 C 205.075 361.688,210.452 364.157,213.820 362.335 C 218.885 359.596,217.947 349.573,211.983 342.682 L 210.809 341.325 211.696 340.965 C 217.825 338.481,223.466 333.779,227.017 328.194 C 228.249 326.256,229.567 323.919,229.786 323.283 C 229.910 322.922,230.111 322.429,230.232 322.188 C 234.570 313.523,233.433 296.964,227.975 289.298 L 227.651 288.844 228.034 288.767 C 228.244 288.725,229.842 288.420,231.583 288.090 C 234.971 287.448,235.910 287.199,239.167 286.080 C 289.149 268.907,309.644 211.220,279.519 172.500 C 266.556 155.839,245.028 145.669,222.716 145.667 L 220.849 145.667 220.675 145.042 C 220.046 142.776,221.446 138.165,223.275 136.479 C 224.009 135.802,226.234 134.598,228.167 133.831 C 229.129 133.449,230.791 132.732,231.860 132.238 C 232.928 131.743,234.578 131.083,235.526 130.771 C 246.403 127.191,251.168 123.287,255.734 114.214 C 256.947 111.806,256.927 111.854,258.396 107.750 C 259.304 105.211,259.990 102.043,260.595 97.583 C 260.744 96.483,260.968 95.087,261.093 94.481 C 261.217 93.874,261.437 92.149,261.582 90.647 C 262.166 84.577,265.127 79.500,269.547 76.994 C 274.269 74.316,275.444 72.949,274.245 71.524 C 273.059 70.114,271.500 70.582,267.674 73.495 C 266.271 74.562,265.546 74.956,262.606 76.245 C 261.493 76.733,259.611 77.560,258.422 78.082 C 256.453 78.948,253.777 79.876,249.750 81.089 C 244.182 82.767,239.498 85.119,234.986 88.502 C 228.607 93.285,226.731 95.401,224.165 100.707 L 223.031 103.051 222.620 101.734 C 222.394 101.009,222.114 100.010,221.998 99.514 C 221.559 97.638,219.655 93.914,216.773 89.290 C 213.571 84.155,208.325 78.292,204.014 75.031 C 202.082 73.569,201.198 73.085,197.250 71.321 C 196.150 70.830,194.162 69.890,192.833 69.232 C 187.962 66.823,184.243 65.934,177.250 65.507 C 175.692 65.411,173.029 65.145,171.333 64.915 C 169.637 64.684,167.313 64.420,166.167 64.327 C 159.156 63.758,153.777 61.733,150.250 58.336 C 146.853 55.064,145.593 54.341,144.353 54.952 M165.514 67.991 C 166.850 68.082,168.050 68.193,168.180 68.239 C 168.743 68.438,175.506 69.173,178.250 69.334 C 183.568 69.646,187.610 70.669,191.333 72.644 C 192.021 73.009,194.196 74.033,196.167 74.920 C 203.787 78.351,209.776 84.430,215.624 94.667 C 217.811 98.495,217.934 98.750,218.343 100.279 C 218.535 100.997,218.949 102.446,219.263 103.500 C 220.407 107.335,221.405 112.699,221.166 113.731 C 220.957 114.639,220.957 120.088,221.167 120.843 C 221.608 122.433,223.359 122.962,224.405 121.821 C 225.202 120.952,225.362 119.829,225.308 115.500 C 225.167 104.280,227.751 98.718,236.062 92.358 C 240.914 88.645,241.770 88.144,246.417 86.289 C 249.646 85.000,250.194 84.809,253.417 83.853 C 254.975 83.390,257.169 82.639,258.292 82.185 C 259.415 81.730,260.333 81.392,260.333 81.434 C 260.333 81.477,260.147 81.879,259.919 82.328 C 258.727 84.681,258.243 86.531,257.912 89.996 C 257.769 91.489,257.549 93.207,257.422 93.814 C 257.294 94.420,257.029 96.117,256.833 97.583 C 255.744 105.701,253.696 111.137,249.079 118.162 C 246.713 121.761,241.830 124.718,233.673 127.492 C 232.531 127.880,231.087 128.454,230.463 128.768 C 229.840 129.082,228.300 129.754,227.040 130.262 C 219.694 133.222,216.549 137.526,216.870 144.180 L 216.948 145.803 216.266 145.896 C 215.890 145.947,214.976 146.037,214.234 146.097 L 212.885 146.205 213.041 145.061 C 213.296 143.182,213.107 139.324,212.669 137.500 C 212.075 135.022,211.511 134.085,208.946 131.312 C 205.409 127.489,204.230 126.623,200.000 124.745 C 198.397 124.033,195.902 122.856,189.333 119.712 C 185.512 117.883,184.907 117.450,181.739 114.271 C 175.766 108.277,173.666 103.927,172.234 94.583 C 171.543 90.080,169.285 83.138,168.006 81.590 C 167.927 81.495,167.732 81.079,167.572 80.667 C 167.025 79.255,164.319 74.926,163.145 73.583 C 162.504 72.850,161.487 71.500,160.886 70.583 C 160.284 69.667,159.502 68.492,159.146 67.974 C 158.791 67.455,158.500 66.999,158.500 66.960 C 158.500 66.921,159.531 67.100,160.792 67.358 C 162.058 67.617,164.171 67.900,165.514 67.991 M192.075 92.232 C 191.209 92.613,190.762 93.686,191.101 94.570 C 191.157 94.715,191.942 95.499,192.847 96.313 C 193.752 97.127,194.786 98.158,195.146 98.605 C 199.467 103.970,199.411 103.886,201.087 107.564 C 202.448 110.551,203.991 111.304,205.056 109.502 C 205.984 107.931,201.960 100.061,198.665 97.000 C 198.616 96.954,198.251 96.504,197.855 96.000 C 197.188 95.150,194.807 92.974,193.954 92.434 C 193.376 92.068,192.631 91.988,192.075 92.232 M239.883 101.263 C 239.115 101.653,238.871 102.121,238.323 104.264 C 237.788 106.351,235.552 110.163,233.914 111.776 C 231.814 113.846,234.250 116.380,236.532 114.499 C 237.163 113.979,240.821 108.637,241.252 107.605 C 241.602 106.766,242.500 103.194,242.500 102.638 C 242.500 101.501,240.983 100.703,239.883 101.263 M231.437 149.644 C 276.139 155.541,301.503 197.518,285.279 238.750 C 275.474 263.668,251.098 282.491,223.667 286.326 C 177.056 292.844,139.123 257.096,145.683 212.835 C 150.701 178.977,181.208 151.786,217.000 149.272 C 219.691 149.083,229.003 149.322,231.437 149.644 M228.167 166.505 C 225.353 167.112,223.348 168.238,220.750 170.672 C 218.851 172.451,216.237 173.656,212.786 174.342 C 208.742 175.147,205.982 174.446,202.951 171.844 C 200.698 169.910,200.120 169.667,197.787 169.667 C 191.509 169.667,186.344 174.242,184.832 181.144 C 183.550 187.001,181.292 189.690,176.917 190.574 C 176.275 190.703,175.037 190.959,174.167 191.141 C 173.296 191.324,171.996 191.555,171.278 191.654 C 167.037 192.239,161.357 196.710,160.646 200.022 C 160.104 202.552,161.339 208.916,163.085 212.583 C 165.743 218.165,165.873 221.646,163.681 228.500 C 161.035 236.774,160.980 239.027,163.290 244.554 C 164.865 248.321,166.310 249.830,171.826 253.463 C 173.426 254.517,175.113 255.730,175.576 256.160 C 176.038 256.589,177.063 257.474,177.853 258.126 C 179.233 259.267,179.329 259.391,180.332 261.365 C 190.543 281.447,214.608 286.639,231.912 272.494 C 234.408 270.454,235.507 270.330,238.917 271.706 C 242.441 273.128,244.222 273.176,246.760 271.916 C 249.655 270.479,251.996 267.039,252.002 264.214 C 252.005 262.424,254.354 259.761,256.241 259.407 C 257.775 259.119,259.979 255.993,261.099 252.516 C 261.497 251.279,261.246 248.955,260.430 246.333 C 259.715 244.035,259.682 243.133,260.233 240.980 C 261.277 236.897,261.938 236.129,265.602 234.739 C 270.357 232.936,271.810 230.386,271.620 224.185 C 271.456 218.802,270.997 217.800,267.337 214.837 C 261.926 210.454,260.741 205.643,263.579 199.583 C 265.838 194.760,265.487 191.918,262.219 188.583 C 259.250 185.555,255.662 184.139,248.917 183.334 C 244.770 182.840,243.238 181.867,241.639 178.715 C 240.846 177.152,240.799 176.768,241.074 174.078 C 241.587 169.049,234.811 165.073,228.167 166.505 M233.506 168.845 C 237.325 169.795,238.981 171.792,238.643 175.039 C 238.402 177.349,238.674 178.458,240.034 180.726 C 241.935 183.894,244.097 185.137,248.632 185.669 C 254.800 186.394,258.042 187.636,260.559 190.236 C 263.147 192.911,263.311 194.679,261.359 198.833 C 260.539 200.579,260.241 201.721,259.989 204.083 C 259.415 209.461,260.838 212.547,265.759 216.594 C 268.580 218.915,268.907 219.424,269.168 221.906 C 269.881 228.671,268.813 231.110,264.466 232.641 C 261.527 233.676,259.718 235.232,258.856 237.466 C 257.363 241.339,257.187 243.967,258.201 247.250 C 259.118 250.223,259.165 251.124,258.487 252.764 C 257.367 255.476,256.193 257.164,255.425 257.169 C 253.343 257.181,249.913 261.240,249.665 263.983 C 249.407 266.846,247.596 269.162,244.776 270.233 C 243.770 270.615,241.721 270.411,240.333 269.791 C 238.783 269.097,237.586 268.658,236.990 268.562 C 236.208 268.437,236.207 268.430,236.838 267.595 C 237.110 267.235,237.338 266.860,237.343 266.762 C 237.348 266.664,237.648 266.208,238.009 265.750 C 238.371 265.292,238.959 264.501,239.316 263.993 C 240.087 262.896,240.880 262.313,242.402 261.725 C 244.545 260.897,246.070 259.472,247.174 257.265 C 248.147 255.320,247.848 254.265,245.751 252.245 C 243.822 250.386,243.625 249.061,243.784 239.000 C 243.862 234.012,243.834 233.101,243.520 230.450 C 242.284 220.031,236.748 210.714,230.284 208.172 C 225.829 206.420,222.867 205.434,220.788 205.012 C 220.400 204.934,219.552 204.752,218.903 204.609 C 193.555 199.031,170.658 225.610,177.249 252.961 C 177.479 253.914,177.667 254.730,177.667 254.775 C 177.667 254.820,177.235 254.484,176.708 254.030 C 176.181 253.576,174.775 252.581,173.583 251.819 C 171.158 250.270,170.671 249.916,168.710 248.279 C 167.053 246.897,166.215 245.625,165.067 242.750 L 164.268 240.750 164.201 238.063 C 164.123 234.972,164.176 234.697,165.829 229.500 C 167.322 224.808,167.350 224.675,167.451 221.816 C 167.582 218.097,166.941 215.036,165.382 211.931 C 163.923 209.026,162.661 203.575,162.869 201.072 C 163.010 199.377,165.263 196.902,168.167 195.253 C 169.850 194.296,170.251 194.171,173.000 193.746 C 173.963 193.597,175.350 193.332,176.083 193.158 C 176.817 192.983,177.792 192.752,178.250 192.644 C 182.848 191.563,185.769 188.013,187.076 181.916 C 187.811 178.487,188.525 177.117,190.574 175.200 C 193.051 172.883,194.667 172.125,197.331 172.031 L 199.250 171.963 200.250 172.725 C 200.800 173.144,201.850 173.947,202.583 174.509 C 206.703 177.669,211.503 177.826,218.417 175.027 C 219.696 174.508,221.065 173.586,222.431 172.320 C 226.019 168.996,229.600 167.873,233.506 168.845 M219.056 208.901 C 222.838 209.698,225.297 210.448,227.527 211.484 C 228.138 211.768,228.682 212.000,228.737 212.000 C 229.835 212.000,233.287 215.356,234.995 218.083 C 238.763 224.098,239.684 228.734,239.631 241.417 C 239.591 250.898,239.877 252.351,242.236 254.661 C 242.748 255.162,243.167 255.632,243.167 255.706 C 243.167 256.113,242.215 257.193,241.607 257.475 C 238.826 258.769,238.263 259.089,237.421 259.858 C 236.904 260.331,236.250 261.062,235.967 261.484 C 235.684 261.905,235.167 262.550,234.818 262.917 C 234.468 263.283,234.058 263.883,233.905 264.250 C 233.522 265.170,231.910 266.945,229.847 268.717 C 208.961 286.663,179.536 270.831,180.382 242.101 C 181.024 220.301,199.181 204.715,219.056 208.901 M224.000 244.775 C 223.771 244.807,221.022 244.940,217.891 245.071 C 211.076 245.355,210.625 245.487,210.891 247.127 C 211.114 248.495,211.459 248.573,216.333 248.349 C 218.396 248.255,221.958 248.097,224.250 247.999 C 229.258 247.784,229.429 247.761,229.935 247.215 C 231.680 245.331,228.717 244.113,224.000 244.775 M171.300 278.236 C 174.093 280.090,177.284 281.926,179.792 283.124 C 181.539 283.958,181.492 283.887,180.809 284.667 C 180.528 284.987,179.812 285.831,179.218 286.542 C 177.666 288.396,176.431 288.133,175.889 285.833 C 175.292 283.304,172.978 282.804,170.883 284.753 C 169.551 285.993,169.225 286.110,168.037 285.776 C 167.056 285.500,166.850 285.324,165.775 283.833 C 163.306 280.410,157.199 283.090,159.503 286.586 C 160.097 287.486,159.911 287.639,157.386 288.330 C 154.507 289.118,153.183 290.651,153.661 292.644 C 153.924 293.740,153.551 295.291,152.826 296.117 C 151.674 297.429,151.571 298.426,152.407 300.169 C 153.175 301.773,153.328 302.973,152.848 303.646 C 151.275 305.855,151.817 308.647,153.939 309.264 C 155.752 309.791,156.005 310.379,155.568 313.059 C 155.241 315.062,155.318 315.686,156.003 316.618 C 157.268 318.339,159.418 318.402,160.991 316.765 C 161.664 316.064,162.357 315.975,162.932 316.514 C 164.089 317.601,166.554 317.033,167.639 315.429 C 168.196 314.608,168.252 313.787,167.852 312.352 C 167.482 311.027,167.504 310.833,168.021 310.833 C 169.411 310.833,170.031 308.867,169.340 306.648 C 168.970 305.458,169.016 305.335,170.024 304.821 C 170.932 304.358,171.576 304.383,171.419 304.875 C 170.971 306.282,171.220 315.044,171.760 316.850 C 171.867 317.206,169.269 319.959,167.935 320.905 C 155.201 329.931,144.944 308.423,152.736 289.034 C 156.004 280.902,160.869 276.516,166.634 276.504 L 168.684 276.500 171.300 278.236 M163.800 284.838 C 164.000 285.024,164.285 285.418,164.434 285.713 C 165.820 288.455,169.893 288.900,172.190 286.559 C 172.880 285.857,173.667 285.581,173.667 286.042 C 173.667 286.920,175.369 289.503,176.164 289.832 C 176.767 290.082,176.761 290.024,176.266 290.807 C 174.696 293.296,173.001 297.506,172.198 300.917 L 171.884 302.250 170.900 302.348 C 167.894 302.649,166.412 304.462,167.142 306.944 C 167.614 308.548,167.617 308.535,166.733 308.898 C 165.338 309.472,165.061 310.442,165.669 312.635 C 166.166 314.430,164.999 315.696,163.932 314.517 C 162.993 313.479,160.918 313.781,159.391 315.178 C 157.992 316.457,157.360 315.672,157.760 313.152 C 158.281 309.880,157.521 308.183,155.159 307.342 L 154.250 307.019 154.271 306.204 C 154.286 305.619,154.421 305.194,154.749 304.698 C 155.568 303.460,155.465 301.526,154.465 299.383 C 153.950 298.277,154.014 297.778,154.750 297.167 C 155.471 296.568,156.092 294.164,155.926 292.614 C 155.781 291.257,156.278 290.781,158.291 290.355 C 161.384 289.701,162.875 287.740,161.667 285.917 C 160.856 284.692,162.663 283.779,163.800 284.838 M189.427 287.039 C 190.153 287.764,188.843 289.502,186.708 290.647 C 182.366 292.976,180.639 295.370,181.667 297.635 C 182.635 299.770,182.078 301.802,180.136 303.208 C 177.883 304.840,176.386 309.216,177.414 311.167 C 178.781 313.759,179.095 316.014,178.354 317.917 C 176.944 321.537,179.019 324.667,182.828 324.667 C 185.942 324.667,187.333 325.834,187.333 328.446 C 187.333 334.383,191.831 336.429,196.643 332.681 C 198.260 331.421,200.511 331.540,202.406 332.984 C 204.487 334.571,207.371 335.114,209.111 334.246 C 210.178 333.715,210.317 333.555,211.300 331.741 C 212.476 329.571,212.704 329.448,215.265 329.594 C 218.949 329.804,220.216 328.531,219.589 325.253 C 219.298 323.734,219.318 323.690,220.559 323.101 C 222.830 322.023,223.233 321.447,222.904 319.747 C 222.521 317.765,222.549 317.636,223.638 316.435 C 226.120 313.696,225.850 310.710,223.010 309.488 C 221.500 308.839,221.565 307.027,223.149 305.599 C 224.694 304.207,225.107 303.702,225.466 302.764 C 226.608 299.780,224.915 296.555,221.046 294.342 C 219.039 293.194,218.333 292.373,218.333 291.190 L 218.333 290.406 220.958 290.117 C 224.589 289.717,224.188 289.609,225.154 291.245 C 227.814 295.747,229.300 300.824,229.595 306.417 C 229.899 312.159,227.785 320.842,225.003 325.284 C 216.961 338.119,202.297 343.009,190.145 336.906 C 172.563 328.076,169.138 302.149,183.528 286.820 L 184.870 285.390 187.093 286.158 C 188.315 286.580,189.366 286.977,189.427 287.039 M194.121 288.243 C 199.870 289.686,204.769 290.312,211.375 290.450 L 216.167 290.550 216.167 291.460 C 216.167 293.283,217.304 294.784,219.667 296.077 C 223.915 298.402,224.808 301.415,221.941 303.751 C 218.956 306.184,218.961 310.007,221.952 311.349 C 223.694 312.131,223.649 313.254,221.795 315.239 C 220.632 316.484,220.547 316.783,220.885 318.425 C 221.376 320.811,221.140 321.367,219.509 321.669 C 217.531 322.035,217.027 323.249,217.796 325.792 C 218.465 328.002,217.325 328.531,213.832 327.632 C 212.133 327.195,210.642 328.191,209.410 330.586 C 208.410 332.531,207.958 332.741,205.840 332.241 C 205.134 332.075,204.475 331.773,203.924 331.364 C 202.102 330.012,201.168 329.666,199.345 329.668 C 197.592 329.671,196.318 330.075,195.250 330.967 C 192.007 333.675,189.502 332.423,189.499 328.093 C 189.497 324.736,187.592 322.883,183.822 322.573 C 180.230 322.276,179.452 321.221,180.577 318.167 C 181.302 316.196,180.794 312.429,179.555 310.588 C 178.819 309.496,179.960 306.081,181.422 304.998 C 184.041 303.057,185.029 299.885,183.847 297.212 C 183.193 295.731,184.158 294.641,188.188 292.313 C 190.641 290.896,191.187 290.285,191.530 288.575 C 191.631 288.076,191.738 287.667,191.769 287.667 C 191.800 287.667,192.858 287.926,194.121 288.243 M160.249 292.802 C 155.722 294.920,156.214 306.333,160.832 306.333 C 166.038 306.333,166.835 293.194,161.667 292.578 C 161.132 292.515,160.725 292.579,160.249 292.802 M198.338 293.516 C 185.748 297.150,179.415 315.822,189.687 319.019 C 194.420 320.492,198.502 318.321,205.283 310.720 C 212.823 302.269,208.147 290.684,198.338 293.516 M162.234 295.011 C 163.983 297.090,163.302 303.368,161.223 304.315 C 160.396 304.692,159.577 303.708,159.187 301.867 C 158.343 297.882,160.522 292.977,162.234 295.011 M202.750 296.684 C 206.418 297.608,206.503 303.397,202.927 308.732 C 197.598 316.682,188.448 318.574,187.884 311.842 C 187.280 304.644,196.604 295.137,202.750 296.684 M207.587 343.170 C 212.921 347.285,215.795 357.879,211.990 359.401 C 209.372 360.449,204.695 356.319,202.556 351.074 C 200.999 347.254,200.955 343.147,202.469 342.957 C 204.068 342.756,204.638 344.121,203.752 346.025 C 202.959 347.727,203.270 349.006,204.660 349.762 C 205.799 350.382,206.014 351.009,205.499 352.206 C 204.833 353.754,205.372 354.586,207.184 354.807 C 208.068 354.915,208.084 354.926,208.128 355.500 C 208.230 356.817,208.686 357.333,209.750 357.333 C 211.676 357.333,212.274 355.062,210.826 353.241 L 210.324 352.609 210.829 352.088 C 211.894 350.989,211.290 349.586,209.267 348.463 C 208.093 347.811,207.831 347.476,208.126 347.003 C 208.539 346.342,208.378 345.809,207.526 345.008 C 207.081 344.591,206.596 344.014,206.447 343.726 C 206.288 343.418,205.952 343.118,205.630 342.998 L 205.083 342.792 205.500 342.663 C 206.326 342.406,206.722 342.502,207.587 343.170 M197.777 342.764 L 198.263 342.861 198.098 343.889 C 197.901 345.115,197.848 345.161,196.647 345.164 C 195.012 345.169,194.112 346.418,194.740 347.812 C 195.146 348.711,194.916 349.085,193.752 349.423 C 191.822 349.984,191.206 352.086,192.704 352.999 C 193.497 353.483,194.031 353.420,194.833 352.750 C 195.623 352.090,195.632 352.088,196.074 352.422 C 196.883 353.034,197.880 352.545,198.223 351.368 C 198.495 350.435,198.652 350.457,199.043 351.482 C 199.510 352.708,199.536 352.833,199.323 352.833 C 199.214 352.833,198.627 353.199,198.020 353.646 C 196.450 354.803,195.581 355.199,194.404 355.293 C 189.247 355.707,189.535 348.032,194.821 344.187 C 195.461 343.722,196.065 343.189,196.165 343.004 C 196.352 342.654,196.853 342.579,197.777 342.764 M206.470 345.446 C 207.236 346.136,207.241 346.146,207.031 346.726 C 206.701 347.639,207.702 349.333,208.571 349.333 C 209.715 349.333,210.531 350.814,209.829 351.614 C 209.179 352.354,209.222 353.057,209.969 353.907 C 210.811 354.865,210.845 355.877,210.047 356.181 C 209.480 356.396,209.167 356.113,209.167 355.385 C 209.167 354.287,208.446 353.667,207.170 353.667 C 206.362 353.667,206.174 353.369,206.495 352.600 C 207.189 350.942,206.234 348.667,204.843 348.667 C 204.220 348.667,204.216 347.558,204.833 346.224 C 205.108 345.630,205.336 344.905,205.338 344.613 C 205.343 344.140,205.362 344.119,205.520 344.417 C 205.617 344.600,206.045 345.063,206.470 345.446 M198.129 347.708 C 198.311 349.146,198.303 349.267,198.014 349.500 C 197.627 349.811,197.167 350.707,197.167 351.149 C 197.167 351.603,196.944 351.702,196.566 351.417 C 195.983 350.975,195.128 351.108,194.368 351.759 C 193.557 352.454,193.000 352.357,193.000 351.520 C 193.000 350.950,193.391 350.578,194.164 350.413 C 195.666 350.093,196.426 348.707,195.759 347.503 C 195.318 346.705,195.849 346.173,197.091 346.169 L 197.933 346.167 198.129 347.708 " stroke="none" fill="#040404" fill-rule="evenodd"></path><path id="path3" d="M145.667 41.907 C 141.198 42.727,137.761 45.516,134.909 50.637 C 132.307 55.308,133.397 63.323,136.931 65.511 C 141.321 68.230,142.777 69.736,144.421 73.259 C 146.350 77.393,146.765 79.601,147.001 87.000 C 147.203 93.351,147.512 95.889,148.408 98.583 C 148.621 99.225,148.921 100.153,149.075 100.646 C 149.359 101.559,150.523 104.061,152.804 108.664 C 153.966 111.009,155.325 113.384,157.192 116.331 C 157.569 116.925,158.252 118.087,158.711 118.914 C 159.906 121.067,162.652 124.547,164.370 126.086 C 165.414 127.023,166.930 128.311,167.823 129.022 C 168.516 129.573,172.405 132.000,172.596 132.000 C 172.640 132.000,173.668 132.478,174.880 133.063 C 177.303 134.232,177.305 134.233,179.333 134.601 C 180.112 134.743,181.125 134.928,181.583 135.012 C 182.042 135.096,185.342 135.167,188.917 135.170 C 197.256 135.177,199.510 135.509,201.738 137.059 L 202.227 137.399 201.738 137.534 C 201.470 137.609,200.575 137.778,199.750 137.910 C 196.973 138.355,192.149 139.481,189.583 140.282 C 188.131 140.735,185.763 141.520,185.417 141.662 C 185.233 141.737,184.408 142.041,183.583 142.338 C 182.758 142.634,181.746 143.022,181.333 143.200 C 180.496 143.562,179.587 143.951,179.083 144.163 C 178.289 144.498,171.819 147.718,170.833 148.269 C 169.263 149.147,166.930 150.544,166.833 150.666 C 166.787 150.723,166.262 151.063,165.667 151.420 C 165.071 151.778,164.508 152.134,164.417 152.211 C 164.325 152.289,163.612 152.802,162.833 153.352 C 160.858 154.746,160.655 154.893,160.440 155.091 C 160.335 155.188,159.725 155.666,159.083 156.155 C 158.442 156.644,157.879 157.090,157.833 157.147 C 157.787 157.204,157.375 157.549,156.917 157.914 C 153.889 160.326,148.413 165.799,145.914 168.910 C 145.549 169.364,145.137 169.858,145.000 170.006 C 144.552 170.490,144.086 171.072,143.672 171.667 C 143.449 171.987,143.218 172.287,143.158 172.333 C 143.052 172.416,142.093 173.752,140.647 175.833 C 139.825 177.016,137.925 180.023,137.330 181.083 C 135.436 184.456,134.013 187.244,133.160 189.250 C 133.082 189.433,132.860 189.958,132.667 190.417 C 132.473 190.875,132.246 191.400,132.162 191.583 C 131.693 192.606,130.200 196.853,129.672 198.667 C 129.472 199.354,129.242 200.104,129.161 200.333 C 129.079 200.563,128.859 201.425,128.672 202.250 C 128.484 203.075,128.260 204.012,128.173 204.333 C 125.975 212.425,125.760 226.080,127.685 235.333 C 128.099 237.323,128.518 239.126,128.769 240.000 C 129.361 242.055,130.035 244.270,130.163 244.583 C 130.237 244.767,130.540 245.592,130.836 246.417 C 131.131 247.242,131.626 248.467,131.936 249.140 C 132.246 249.813,132.500 250.402,132.500 250.450 C 132.500 251.674,140.056 264.230,141.657 265.667 C 141.708 265.712,142.050 266.125,142.416 266.583 C 143.462 267.893,143.827 268.306,145.250 269.790 C 146.315 270.901,146.657 271.387,146.951 272.207 C 147.377 273.395,147.480 273.175,145.610 275.083 C 144.892 275.817,144.182 276.623,144.033 276.875 C 143.884 277.127,143.715 277.333,143.658 277.333 C 143.602 277.333,143.262 277.765,142.904 278.292 C 142.545 278.819,142.176 279.341,142.084 279.453 C 141.992 279.564,141.839 279.751,141.743 279.869 C 140.768 281.073,138.056 286.285,137.167 288.667 C 136.978 289.171,136.759 289.733,136.680 289.917 C 136.294 290.808,135.120 294.662,134.828 296.000 C 131.009 313.464,135.325 328.131,145.750 333.123 C 146.208 333.342,147.033 333.755,147.583 334.041 C 148.133 334.326,149.108 334.700,149.750 334.871 C 150.392 335.042,151.326 335.292,151.827 335.425 C 152.327 335.558,153.190 335.666,153.743 335.666 C 154.297 335.665,155.336 335.754,156.052 335.863 C 158.284 336.202,161.600 335.580,164.331 334.310 C 165.109 333.948,165.770 333.725,165.800 333.816 C 165.830 333.906,166.128 334.340,166.463 334.781 C 166.798 335.222,167.129 335.658,167.199 335.750 C 168.486 337.447,170.501 339.451,173.318 341.833 C 173.806 342.246,174.297 342.671,174.411 342.779 C 174.766 343.115,177.201 344.667,177.374 344.667 C 177.473 344.667,177.500 345.012,177.442 345.542 C 176.837 351.041,177.390 358.139,178.704 361.750 C 179.117 362.886,180.502 366.002,180.667 366.167 C 180.713 366.212,180.896 366.537,181.074 366.887 C 181.680 368.077,183.674 369.910,185.094 370.581 C 189.592 372.709,193.984 371.663,197.890 367.535 L 198.566 366.821 199.184 367.543 C 199.524 367.941,200.128 368.487,200.526 368.758 C 200.924 369.028,201.287 369.292,201.333 369.344 C 201.489 369.523,203.412 370.519,204.500 370.985 C 211.185 373.848,219.620 370.737,222.808 364.232 C 224.769 360.229,224.931 354.325,223.267 347.417 C 222.753 345.278,222.728 345.065,222.978 344.866 C 223.128 344.747,223.944 344.138,224.793 343.512 C 227.447 341.556,227.689 341.345,230.267 338.736 C 232.508 336.468,236.000 331.909,236.000 331.252 C 236.000 331.192,236.216 330.830,236.480 330.446 C 237.097 329.549,239.190 325.468,239.531 324.496 C 242.511 316.009,242.503 316.049,242.620 309.976 C 242.706 305.524,242.537 301.047,242.187 298.465 L 242.059 297.527 242.738 297.357 C 243.111 297.264,244.392 296.949,245.583 296.657 C 246.775 296.365,248.050 296.033,248.417 295.918 C 250.573 295.247,251.541 294.929,252.583 294.552 C 254.161 293.980,256.637 293.031,257.250 292.763 C 257.525 292.643,258.162 292.368,258.667 292.153 C 260.474 291.381,265.954 288.529,267.917 287.339 C 269.767 286.216,273.808 283.555,274.000 283.333 C 274.046 283.280,275.058 282.496,276.250 281.590 C 277.442 280.684,278.454 279.899,278.500 279.845 C 278.546 279.791,279.180 279.223,279.908 278.582 C 298.894 261.885,309.382 238.935,309.365 214.129 C 309.358 204.785,308.153 197.335,305.231 188.583 C 300.557 174.583,291.211 161.346,279.984 152.824 C 279.214 152.240,278.508 151.700,278.417 151.625 C 277.749 151.078,272.408 147.500,272.260 147.500 C 272.224 147.500,271.644 147.176,270.972 146.780 C 269.439 145.877,266.192 144.238,264.333 143.427 C 263.554 143.088,262.767 142.741,262.583 142.656 C 261.351 142.087,256.326 140.328,254.708 139.899 C 254.227 139.771,253.402 139.549,252.875 139.405 C 250.641 138.794,248.453 138.330,245.833 137.912 C 243.798 137.588,243.796 137.587,244.583 137.261 C 244.950 137.109,245.400 136.915,245.583 136.829 C 245.767 136.743,246.217 136.601,246.583 136.513 C 246.950 136.426,247.887 136.197,248.667 136.005 C 252.375 135.093,254.042 134.716,255.000 134.574 C 256.215 134.393,258.336 133.330,263.083 130.523 C 264.092 129.927,264.954 129.397,265.000 129.345 C 265.046 129.293,265.434 128.968,265.863 128.624 C 271.949 123.734,275.106 115.444,273.177 109.417 C 272.538 107.421,271.651 104.113,271.568 103.417 C 271.038 99.001,272.393 96.972,276.917 95.410 C 283.606 93.098,287.333 87.802,287.333 80.609 L 287.333 78.016 288.070 77.216 C 288.474 76.776,288.972 76.229,289.176 76.000 C 293.807 70.786,294.042 62.552,289.683 58.220 C 286.097 54.658,280.498 53.419,275.833 55.156 C 275.604 55.241,274.967 55.436,274.417 55.588 C 273.081 55.957,271.161 56.886,269.833 57.805 C 268.053 59.038,267.103 59.767,266.750 60.170 C 265.178 61.967,264.374 62.175,261.388 61.558 C 256.862 60.622,252.327 60.893,249.717 62.254 C 249.460 62.388,249.196 62.498,249.131 62.499 C 248.871 62.501,246.364 64.106,245.500 64.823 C 244.467 65.680,244.334 65.838,243.458 67.245 C 242.887 68.162,242.631 68.759,241.743 71.250 C 241.418 72.160,239.621 74.176,238.417 74.981 C 237.425 75.644,236.808 75.806,233.898 76.165 C 228.567 76.823,226.900 77.215,224.833 78.296 C 223.871 78.800,222.990 79.286,222.876 79.376 C 222.636 79.565,220.838 78.468,220.146 77.710 C 218.827 76.267,217.877 74.479,217.244 72.250 C 217.035 71.517,216.675 70.392,216.444 69.750 C 216.212 69.108,215.764 67.871,215.448 67.000 C 213.427 61.432,209.570 58.571,201.417 56.594 C 200.775 56.438,199.950 56.222,199.583 56.114 C 199.098 55.970,195.703 55.917,187.083 55.917 C 180.575 55.917,175.165 55.861,175.060 55.793 C 174.956 55.726,173.944 55.593,172.810 55.499 C 170.787 55.330,170.335 55.257,168.175 54.745 C 165.035 54.000,162.122 52.070,160.645 49.755 C 159.378 47.768,155.713 44.245,153.570 42.954 C 151.721 41.840,148.418 41.402,145.667 41.907 M146.708 55.186 C 147.672 55.856,149.785 57.651,150.303 58.241 C 152.983 61.294,159.410 63.739,165.917 64.182 C 167.200 64.269,168.362 64.375,168.500 64.416 C 169.228 64.634,175.650 65.344,178.250 65.495 C 184.307 65.845,187.946 66.751,192.833 69.124 C 194.254 69.814,195.900 70.597,196.491 70.864 C 202.136 73.412,202.418 73.573,205.417 75.979 C 207.314 77.502,207.943 78.123,210.224 80.738 C 211.338 82.014,212.720 83.589,213.295 84.238 C 214.566 85.673,216.631 88.757,218.492 92.000 C 219.255 93.329,220.158 94.904,220.500 95.500 C 221.241 96.793,221.696 97.987,222.269 100.138 C 222.503 101.017,222.790 101.964,222.908 102.243 L 223.122 102.750 223.427 102.000 C 225.649 96.543,228.254 93.448,234.750 88.546 C 239.798 84.737,244.190 82.604,251.288 80.513 C 254.792 79.481,256.679 78.786,259.917 77.334 C 261.292 76.717,263.160 75.889,264.068 75.493 C 265.166 75.015,266.366 74.300,267.651 73.356 C 271.352 70.641,272.979 70.112,274.159 71.243 C 275.736 72.754,273.938 74.922,269.066 77.384 C 267.992 77.927,266.847 79.087,265.086 81.417 C 262.705 84.567,262.037 86.396,261.675 90.750 C 261.583 91.850,261.323 93.837,261.096 95.167 C 260.869 96.496,260.523 98.671,260.327 100.000 C 259.784 103.679,259.345 105.334,257.583 110.333 C 256.596 113.135,253.419 118.883,251.406 121.511 C 248.771 124.948,242.387 128.687,235.194 131.003 C 234.339 131.279,232.727 131.926,231.614 132.441 C 230.500 132.956,228.875 133.661,228.002 134.007 C 224.985 135.203,223.083 136.495,222.247 137.917 C 221.368 139.413,220.666 141.945,220.669 143.607 C 220.673 145.585,220.482 145.447,223.390 145.574 C 232.992 145.991,239.321 147.051,246.478 149.442 C 282.996 161.641,301.791 198.364,290.310 235.083 C 281.885 262.030,255.564 284.923,228.616 288.743 L 227.815 288.856 228.165 289.387 C 232.167 295.455,234.160 306.712,232.567 314.250 C 232.431 314.892,232.243 315.829,232.148 316.333 C 230.202 326.707,221.980 336.792,212.167 340.843 C 210.886 341.371,210.891 341.354,211.782 342.332 C 215.127 346.003,217.178 350.965,217.192 355.424 C 217.222 364.788,208.021 365.769,201.902 357.053 C 201.463 356.428,201.084 355.889,201.060 355.856 C 201.036 355.822,200.511 356.173,199.893 356.636 C 189.800 364.195,182.140 351.407,191.400 342.457 C 191.851 342.022,192.190 341.638,192.152 341.605 C 192.114 341.572,191.655 341.387,191.131 341.194 C 185.021 338.940,179.050 333.676,175.572 327.479 C 174.819 326.138,173.167 322.560,173.167 322.271 C 173.167 322.226,173.091 321.989,172.998 321.746 L 172.830 321.303 171.873 322.180 C 159.119 333.874,144.502 320.470,146.752 299.143 C 148.105 286.329,153.856 276.893,162.378 273.507 C 164.063 272.838,163.967 271.944,162.073 270.662 C 156.486 266.881,148.333 254.274,144.937 244.167 C 130.918 202.434,160.601 155.939,206.917 147.084 L 208.417 146.797 208.829 146.024 C 210.153 143.542,209.216 137.189,207.216 135.083 C 206.868 134.717,206.032 133.798,205.358 133.043 C 203.355 130.796,201.901 129.798,198.130 128.085 C 197.422 127.763,196.799 127.500,196.744 127.500 C 196.690 127.500,195.132 126.759,193.281 125.852 C 191.431 124.946,189.504 124.032,189.000 123.820 C 187.804 123.318,185.259 122.003,183.595 121.026 C 178.342 117.943,171.393 108.360,169.843 102.064 C 169.461 100.512,168.564 96.070,168.417 95.000 C 167.985 91.860,167.147 88.883,165.952 86.250 C 163.366 80.548,161.857 77.895,159.981 75.750 C 159.340 75.017,158.396 73.779,157.883 73.000 C 157.370 72.221,156.608 71.058,156.188 70.417 C 155.421 69.245,155.116 68.917,152.088 66.005 C 151.185 65.137,149.952 63.850,149.348 63.145 C 148.744 62.440,147.564 61.335,146.726 60.689 C 144.494 58.972,143.332 57.545,143.339 56.532 C 143.351 54.765,145.096 54.068,146.708 55.186 M208.751 208.439 C 202.952 209.181,196.697 212.050,192.583 215.856 C 192.217 216.195,191.700 216.642,191.435 216.850 C 188.120 219.448,183.565 227.089,181.923 232.808 C 173.963 260.524,198.538 284.875,222.750 273.263 C 227.130 271.163,233.667 265.836,233.667 264.368 C 233.667 264.123,234.001 263.620,234.556 263.029 C 235.046 262.509,235.680 261.737,235.966 261.313 C 236.879 259.962,238.098 259.018,240.255 257.995 C 241.913 257.208,242.333 256.932,242.691 256.397 L 243.122 255.750 242.103 254.663 C 239.707 252.108,239.266 249.488,239.450 238.895 C 239.579 231.421,239.287 228.942,237.705 224.083 C 236.164 219.351,233.169 214.906,230.262 213.035 C 225.056 209.683,215.304 207.600,208.751 208.439 M229.588 244.699 C 230.769 245.237,230.748 247.100,229.554 247.654 C 229.239 247.800,227.402 247.947,224.000 248.098 C 221.204 248.223,217.421 248.397,215.593 248.485 C 211.369 248.688,210.396 248.313,210.736 246.613 C 211.001 245.286,211.218 245.242,219.000 244.920 C 222.529 244.774,225.567 244.630,225.750 244.600 C 226.639 244.454,229.196 244.520,229.588 244.699 M161.656 284.808 L 161.275 285.117 161.668 285.668 C 163.245 287.883,161.869 289.547,157.535 290.665 C 156.429 290.951,155.707 291.674,155.965 292.239 C 156.439 293.280,155.831 295.953,154.820 297.265 C 154.036 298.284,154.041 298.195,154.680 299.559 C 155.502 301.316,155.566 303.389,154.840 304.772 C 153.975 306.418,154.038 306.806,155.244 307.277 C 157.417 308.128,158.106 309.317,157.923 311.900 C 157.692 315.158,157.695 315.204,158.203 315.490 C 158.640 315.737,158.677 315.725,159.286 315.149 C 160.847 313.671,162.485 313.376,163.807 314.333 C 164.641 314.938,164.846 314.950,165.447 314.433 L 165.912 314.033 165.623 312.947 C 164.974 310.512,165.392 309.067,166.838 308.749 C 167.420 308.621,167.498 308.100,167.083 307.109 C 166.077 304.702,168.217 302.167,171.255 302.167 C 171.782 302.167,171.783 302.164,172.165 300.625 C 172.922 297.570,174.208 294.306,175.758 291.504 C 176.176 290.748,176.495 290.116,176.467 290.101 C 176.440 290.085,176.201 289.963,175.936 289.830 C 175.196 289.455,174.133 287.871,173.676 286.458 C 173.415 285.650,173.312 285.666,172.190 286.693 C 169.672 288.996,165.984 288.559,164.310 285.760 C 163.555 284.498,162.504 284.121,161.656 284.808 M191.669 288.526 C 191.197 290.375,190.495 291.181,188.357 292.333 C 187.591 292.746,186.223 293.665,185.316 294.376 C 183.481 295.814,183.473 295.834,184.000 297.333 C 185.005 300.189,183.997 303.339,181.538 305.031 C 180.043 306.060,178.953 309.205,179.642 310.502 C 181.119 313.286,181.453 316.302,180.542 318.639 C 179.550 321.182,180.210 322.002,183.583 322.418 C 187.702 322.925,189.479 324.483,189.493 327.599 C 189.503 329.734,190.109 331.531,190.997 332.055 C 191.974 332.632,193.577 332.123,195.566 330.605 C 197.402 329.204,201.107 329.190,203.015 330.577 C 204.558 331.699,204.862 331.871,205.691 332.092 C 207.778 332.647,208.326 332.414,209.330 330.543 C 210.869 327.676,212.045 327.021,214.489 327.671 C 217.439 328.455,218.217 327.833,217.521 325.250 C 216.977 323.230,217.690 321.834,219.397 321.578 C 221.017 321.335,221.307 320.671,220.780 318.417 C 220.431 316.927,220.585 316.406,221.742 315.150 C 223.308 313.451,223.513 312.006,222.245 311.593 C 218.673 310.431,218.848 305.515,222.547 303.092 C 224.709 301.675,223.240 298.160,219.669 296.204 C 217.310 294.913,216.001 293.193,215.999 291.385 L 215.999 290.583 211.958 290.559 C 205.252 290.520,199.399 289.733,192.302 287.917 C 191.884 287.810,191.842 287.851,191.669 288.526 M162.833 292.898 C 166.465 294.680,165.914 304.449,162.085 306.189 C 158.737 307.710,156.045 302.731,157.270 297.283 C 158.146 293.387,160.327 291.668,162.833 292.898 M203.439 293.232 C 210.185 295.028,211.098 304.410,205.167 310.987 C 199.977 316.741,197.554 318.562,194.167 319.252 C 188.301 320.447,184.001 316.634,184.392 310.583 C 185.009 301.030,195.801 291.198,203.439 293.232 M205.080 345.819 C 204.392 347.454,204.418 348.332,205.167 348.690 C 206.690 349.418,207.301 350.896,206.678 352.344 C 206.237 353.369,206.409 353.667,207.441 353.667 C 208.617 353.667,209.333 354.389,209.333 355.575 C 209.333 356.228,209.668 356.363,210.244 355.942 C 210.682 355.621,210.489 354.638,209.842 353.901 C 209.167 353.132,209.126 352.086,209.750 351.500 C 210.502 350.794,210.116 350.152,208.453 349.341 C 207.136 348.698,206.490 347.453,206.989 346.520 C 207.114 346.288,206.983 346.077,206.344 345.475 L 205.543 344.721 205.080 345.819 M195.805 346.745 C 195.676 347.030,195.671 347.223,195.790 347.370 C 196.705 348.505,195.850 350.049,194.003 350.598 C 193.144 350.853,192.777 351.447,193.180 351.933 C 193.463 352.274,193.682 352.224,194.329 351.671 C 195.075 351.033,195.687 350.902,196.357 351.237 C 196.647 351.382,196.909 351.500,196.940 351.500 C 196.970 351.500,197.082 351.157,197.187 350.738 C 197.293 350.319,197.581 349.777,197.829 349.533 C 198.219 349.148,198.261 349.012,198.147 348.503 C 198.075 348.181,197.970 347.560,197.915 347.125 L 197.813 346.333 196.903 346.333 C 196.097 346.333,195.971 346.380,195.805 346.745 " stroke="none" fill="#fbfbfb" fill-rule="evenodd"></path><path id="path4" d="M150.583 64.500 C 150.941 64.867,151.272 65.167,151.318 65.167 C 151.363 65.167,151.108 64.867,150.750 64.500 C 150.392 64.133,150.062 63.833,150.016 63.833 C 149.970 63.833,150.225 64.133,150.583 64.500 M165.708 64.282 C 165.869 64.323,166.131 64.323,166.292 64.282 C 166.452 64.240,166.321 64.205,166.000 64.205 C 165.679 64.205,165.548 64.240,165.708 64.282 M175.375 65.448 C 175.535 65.490,175.798 65.490,175.958 65.448 C 176.119 65.406,175.987 65.372,175.667 65.372 C 175.346 65.372,175.215 65.406,175.375 65.448 M177.794 65.618 C 178.001 65.658,178.301 65.656,178.460 65.615 C 178.620 65.573,178.450 65.540,178.083 65.542 C 177.717 65.544,177.586 65.578,177.794 65.618 M154.167 67.885 C 154.167 67.914,154.410 68.158,154.708 68.427 L 155.250 68.917 154.760 68.375 C 154.304 67.870,154.167 67.757,154.167 67.885 M165.958 68.118 C 166.165 68.157,166.502 68.157,166.708 68.118 C 166.915 68.078,166.746 68.045,166.333 68.045 C 165.921 68.045,165.752 68.078,165.958 68.118 M178.375 69.453 C 178.627 69.491,179.040 69.491,179.292 69.453 C 179.544 69.415,179.338 69.383,178.833 69.383 C 178.329 69.383,178.123 69.415,178.375 69.453 M207.750 78.167 C 208.201 78.625,208.608 79.000,208.654 79.000 C 208.700 79.000,208.368 78.625,207.917 78.167 C 207.465 77.708,207.058 77.333,207.013 77.333 C 206.967 77.333,207.299 77.708,207.750 78.167 M205.083 80.833 C 205.441 81.200,205.772 81.500,205.818 81.500 C 205.863 81.500,205.608 81.200,205.250 80.833 C 204.892 80.467,204.562 80.167,204.516 80.167 C 204.470 80.167,204.725 80.467,205.083 80.833 M257.872 89.333 C 257.872 89.654,257.906 89.785,257.948 89.625 C 257.990 89.465,257.990 89.202,257.948 89.042 C 257.906 88.881,257.872 89.013,257.872 89.333 M261.539 91.167 C 261.539 91.487,261.573 91.619,261.615 91.458 C 261.657 91.298,261.657 91.035,261.615 90.875 C 261.573 90.715,261.539 90.846,261.539 91.167 M191.400 92.567 C 190.552 93.414,190.592 94.267,191.523 95.215 L 192.213 95.917 191.606 95.208 C 190.651 94.091,190.861 92.763,192.075 92.234 C 192.415 92.086,192.481 92.011,192.275 92.007 C 192.105 92.003,191.712 92.255,191.400 92.567 M231.324 96.458 L 230.750 97.083 231.375 96.509 C 231.957 95.974,232.077 95.833,231.949 95.833 C 231.922 95.833,231.640 96.115,231.324 96.458 M193.083 96.667 C 193.441 97.033,193.772 97.333,193.818 97.333 C 193.863 97.333,193.608 97.033,193.250 96.667 C 192.892 96.300,192.562 96.000,192.516 96.000 C 192.470 96.000,192.725 96.300,193.083 96.667 M242.072 101.619 C 242.250 101.830,242.447 102.321,242.510 102.710 L 242.625 103.417 242.646 102.794 C 242.662 102.323,242.556 102.058,242.208 101.703 C 241.956 101.445,241.895 101.407,242.072 101.619 M205.372 108.500 C 205.372 108.821,205.406 108.952,205.448 108.792 C 205.490 108.631,205.490 108.369,205.448 108.208 C 205.406 108.048,205.372 108.179,205.372 108.500 M180.500 113.083 C 180.811 113.404,181.103 113.667,181.149 113.667 C 181.195 113.667,180.978 113.404,180.667 113.083 C 180.356 112.763,180.064 112.500,180.018 112.500 C 179.972 112.500,180.189 112.763,180.500 113.083 M233.023 113.750 C 233.014 113.933,233.165 114.271,233.357 114.500 L 233.706 114.917 233.455 114.493 C 233.317 114.260,233.167 113.923,233.122 113.743 C 233.041 113.425,233.038 113.425,233.023 113.750 M220.901 117.333 C 220.901 118.846,220.926 119.465,220.957 118.708 C 220.988 117.952,220.988 116.715,220.957 115.958 C 220.926 115.202,220.901 115.821,220.901 117.333 M247.409 120.208 L 246.750 120.917 247.458 120.258 C 248.117 119.645,248.243 119.500,248.117 119.500 C 248.090 119.500,247.771 119.819,247.409 120.208 M207.167 129.417 C 207.757 130.012,208.278 130.500,208.324 130.500 C 208.370 130.500,207.924 130.012,207.333 129.417 C 206.743 128.821,206.222 128.333,206.176 128.333 C 206.130 128.333,206.576 128.821,207.167 129.417 M208.667 131.052 C 208.667 131.081,208.910 131.325,209.208 131.594 L 209.750 132.083 209.260 131.542 C 208.804 131.037,208.667 130.923,208.667 131.052 M219.906 134.542 L 219.417 135.083 219.958 134.594 C 220.463 134.138,220.577 134.000,220.448 134.000 C 220.419 134.000,220.175 134.244,219.906 134.542 M223.075 136.708 L 222.417 137.417 223.125 136.758 C 223.784 136.145,223.910 136.000,223.784 136.000 C 223.757 136.000,223.438 136.319,223.075 136.708 M209.388 142.083 L 209.384 144.083 209.524 142.716 C 209.601 141.964,209.603 141.064,209.529 140.716 C 209.431 140.259,209.392 140.638,209.388 142.083 M220.553 143.667 C 220.553 144.262,220.584 144.506,220.621 144.208 C 220.658 143.910,220.658 143.423,220.621 143.125 C 220.584 142.827,220.553 143.071,220.553 143.667 M225.708 145.782 C 225.869 145.823,226.131 145.823,226.292 145.782 C 226.452 145.740,226.321 145.705,226.000 145.705 C 225.679 145.705,225.548 145.740,225.708 145.782 M215.294 145.951 C 215.501 145.991,215.801 145.990,215.960 145.948 C 216.120 145.906,215.950 145.874,215.583 145.875 C 215.217 145.877,215.086 145.911,215.294 145.951 M228.294 145.951 C 228.501 145.991,228.801 145.990,228.960 145.948 C 229.120 145.906,228.950 145.874,228.583 145.875 C 228.217 145.877,228.086 145.911,228.294 145.951 M218.042 149.282 C 218.202 149.323,218.465 149.323,218.625 149.282 C 218.785 149.240,218.654 149.205,218.333 149.205 C 218.012 149.205,217.881 149.240,218.042 149.282 M271.667 168.917 C 272.442 169.696,273.113 170.333,273.159 170.333 C 273.205 170.333,272.608 169.696,271.833 168.917 C 271.058 168.137,270.387 167.500,270.341 167.500 C 270.295 167.500,270.892 168.137,271.667 168.917 M165.409 168.542 L 164.750 169.250 165.458 168.591 C 166.117 167.978,166.243 167.833,166.117 167.833 C 166.090 167.833,165.771 168.152,165.409 168.542 M238.826 169.042 C 239.235 169.477,239.591 169.833,239.618 169.833 C 239.743 169.833,239.611 169.684,238.875 168.993 L 238.083 168.250 238.826 169.042 M197.711 169.620 C 197.964 169.658,198.339 169.657,198.544 169.617 C 198.749 169.578,198.542 169.546,198.083 169.548 C 197.625 169.549,197.457 169.581,197.711 169.620 M162.491 171.458 L 161.917 172.083 162.542 171.509 C 163.123 170.974,163.243 170.833,163.116 170.833 C 163.088 170.833,162.807 171.115,162.491 171.458 M240.881 176.250 C 240.882 176.708,240.915 176.876,240.953 176.623 C 240.991 176.369,240.990 175.994,240.951 175.789 C 240.911 175.584,240.880 175.792,240.881 176.250 M181.575 188.042 L 180.917 188.750 181.625 188.091 C 182.284 187.478,182.410 187.333,182.284 187.333 C 182.257 187.333,181.938 187.652,181.575 188.042 M260.167 189.917 C 260.478 190.237,260.770 190.500,260.815 190.500 C 260.861 190.500,260.644 190.237,260.333 189.917 C 260.022 189.596,259.730 189.333,259.685 189.333 C 259.639 189.333,259.856 189.596,260.167 189.917 M262.553 194.500 C 262.553 195.096,262.584 195.340,262.621 195.042 C 262.658 194.744,262.658 194.256,262.621 193.958 C 262.584 193.660,262.553 193.904,262.553 194.500 M162.888 201.583 C 162.889 202.225,162.919 202.467,162.955 202.121 C 162.991 201.775,162.990 201.250,162.954 200.955 C 162.917 200.659,162.887 200.942,162.888 201.583 M210.542 203.953 C 210.794 203.991,211.206 203.991,211.458 203.953 C 211.710 203.915,211.504 203.883,211.000 203.883 C 210.496 203.883,210.290 203.915,210.542 203.953 M213.042 203.953 C 213.294 203.991,213.706 203.991,213.958 203.953 C 214.210 203.915,214.004 203.883,213.500 203.883 C 212.996 203.883,212.790 203.915,213.042 203.953 M259.872 204.333 C 259.872 204.654,259.906 204.785,259.948 204.625 C 259.990 204.465,259.990 204.202,259.948 204.042 C 259.906 203.881,259.872 204.012,259.872 204.333 M293.372 208.167 C 293.372 208.487,293.406 208.619,293.448 208.458 C 293.490 208.298,293.490 208.035,293.448 207.875 C 293.406 207.715,293.372 207.846,293.372 208.167 M290.045 210.167 C 290.045 210.579,290.078 210.748,290.118 210.542 C 290.157 210.335,290.157 209.998,290.118 209.792 C 290.078 209.585,290.045 209.754,290.045 210.167 M293.556 211.167 C 293.556 211.854,293.585 212.135,293.621 211.792 C 293.657 211.448,293.657 210.885,293.621 210.542 C 293.585 210.198,293.556 210.479,293.556 211.167 M234.583 211.000 C 234.941 211.367,235.272 211.667,235.318 211.667 C 235.363 211.667,235.108 211.367,234.750 211.000 C 234.392 210.633,234.062 210.333,234.016 210.333 C 233.970 210.333,234.225 210.633,234.583 211.000 M232.083 214.500 C 232.628 215.050,233.110 215.500,233.156 215.500 C 233.202 215.500,232.794 215.050,232.250 214.500 C 231.706 213.950,231.223 213.500,231.177 213.500 C 231.131 213.500,231.539 213.950,232.083 214.500 M187.742 214.375 L 187.083 215.083 187.792 214.425 C 188.450 213.812,188.577 213.667,188.450 213.667 C 188.423 213.667,188.105 213.985,187.742 214.375 M293.557 215.917 C 293.558 216.650,293.587 216.929,293.622 216.537 C 293.657 216.145,293.657 215.545,293.621 215.204 C 293.585 214.863,293.557 215.183,293.557 215.917 M290.045 216.833 C 290.045 217.246,290.078 217.415,290.118 217.208 C 290.157 217.002,290.157 216.665,290.118 216.458 C 290.078 216.252,290.045 216.421,290.045 216.833 M141.542 219.083 C 141.544 219.450,141.578 219.580,141.618 219.373 C 141.658 219.166,141.656 218.866,141.615 218.706 C 141.573 218.547,141.540 218.717,141.542 219.083 M167.561 220.917 C 167.561 221.833,167.589 222.187,167.623 221.703 C 167.657 221.218,167.656 220.468,167.622 220.036 C 167.588 219.604,167.560 220.000,167.561 220.917 M144.875 222.583 C 144.877 222.950,144.911 223.080,144.951 222.873 C 144.991 222.666,144.990 222.366,144.948 222.206 C 144.906 222.047,144.874 222.217,144.875 222.583 M271.724 225.250 C 271.724 225.983,271.754 226.263,271.789 225.871 C 271.824 225.479,271.824 224.879,271.788 224.537 C 271.752 224.196,271.723 224.517,271.724 225.250 M141.545 226.167 C 141.545 226.579,141.578 226.748,141.618 226.542 C 141.657 226.335,141.657 225.998,141.618 225.792 C 141.578 225.585,141.545 225.754,141.545 226.167 M239.571 236.917 C 239.571 238.933,239.595 239.735,239.625 238.699 C 239.654 237.663,239.654 236.013,239.624 235.032 C 239.595 234.052,239.571 234.900,239.571 236.917 M180.375 240.750 C 180.377 241.117,180.411 241.247,180.451 241.040 C 180.491 240.832,180.490 240.532,180.448 240.373 C 180.406 240.214,180.374 240.383,180.375 240.750 M176.064 243.333 C 176.064 244.479,176.091 244.948,176.123 244.375 C 176.156 243.802,176.156 242.865,176.123 242.292 C 176.091 241.719,176.064 242.188,176.064 243.333 M259.889 243.500 C 259.889 244.188,259.919 244.469,259.955 244.125 C 259.991 243.781,259.991 243.219,259.955 242.875 C 259.919 242.531,259.889 242.813,259.889 243.500 M227.625 244.621 C 227.923 244.658,228.410 244.658,228.708 244.621 C 229.006 244.584,228.762 244.553,228.167 244.553 C 227.571 244.553,227.327 244.584,227.625 244.621 M220.128 244.954 C 220.428 244.991,220.878 244.990,221.128 244.952 C 221.378 244.914,221.133 244.884,220.583 244.885 C 220.033 244.886,219.828 244.917,220.128 244.954 M216.458 245.118 C 216.665 245.157,217.002 245.157,217.208 245.118 C 217.415 245.078,217.246 245.045,216.833 245.045 C 216.421 245.045,216.252 245.078,216.458 245.118 M180.372 246.000 C 180.372 246.321,180.406 246.452,180.448 246.292 C 180.490 246.131,180.490 245.869,180.448 245.708 C 180.406 245.548,180.372 245.679,180.372 246.000 M239.539 246.667 C 239.539 246.987,239.573 247.119,239.615 246.958 C 239.657 246.798,239.657 246.535,239.615 246.375 C 239.573 246.215,239.539 246.346,239.539 246.667 M167.167 246.885 C 167.167 246.914,167.410 247.158,167.708 247.427 L 168.250 247.917 167.760 247.375 C 167.304 246.870,167.167 246.757,167.167 246.885 M243.879 248.000 C 243.879 248.412,243.911 248.581,243.951 248.375 C 243.991 248.169,243.991 247.831,243.951 247.625 C 243.911 247.419,243.879 247.588,243.879 248.000 M226.044 247.953 C 226.297 247.991,226.672 247.990,226.877 247.951 C 227.082 247.911,226.875 247.880,226.417 247.881 C 225.958 247.882,225.791 247.915,226.044 247.953 M222.295 248.121 C 222.594 248.158,223.044 248.157,223.295 248.119 C 223.545 248.081,223.300 248.051,222.750 248.052 C 222.200 248.053,221.995 248.084,222.295 248.121 M215.042 248.453 C 215.294 248.491,215.706 248.491,215.958 248.453 C 216.210 248.415,216.004 248.383,215.500 248.383 C 214.996 248.383,214.790 248.415,215.042 248.453 M258.879 251.000 C 258.879 251.412,258.911 251.581,258.951 251.375 C 258.991 251.169,258.991 250.831,258.951 250.625 C 258.911 250.419,258.879 250.588,258.879 251.000 M242.167 254.750 C 242.665 255.254,243.109 255.667,243.155 255.667 C 243.201 255.667,242.831 255.254,242.333 254.750 C 241.835 254.246,241.391 253.833,241.345 253.833 C 241.299 253.833,241.669 254.246,242.167 254.750 M177.154 254.376 C 177.627 254.911,177.611 254.904,177.611 254.583 C 177.611 254.446,177.573 254.371,177.527 254.417 C 177.481 254.463,177.288 254.370,177.097 254.210 C 176.844 253.998,176.860 254.043,177.154 254.376 M236.909 260.208 L 236.250 260.917 236.958 260.258 C 237.617 259.645,237.743 259.500,237.617 259.500 C 237.590 259.500,237.271 259.819,236.909 260.208 M270.914 266.375 L 268.750 268.583 270.958 266.419 C 273.010 264.409,273.242 264.167,273.123 264.167 C 273.098 264.167,272.105 265.160,270.914 266.375 M231.495 267.125 L 230.417 268.250 231.542 267.171 C 232.587 266.170,232.743 266.000,232.620 266.000 C 232.595 266.000,232.088 266.506,231.495 267.125 M188.667 266.385 C 188.667 266.414,188.910 266.658,189.208 266.927 L 189.750 267.417 189.260 266.875 C 188.804 266.370,188.667 266.257,188.667 266.385 M159.826 268.708 C 160.517 269.444,160.667 269.577,160.667 269.451 C 160.667 269.425,160.310 269.068,159.875 268.660 L 159.083 267.917 159.826 268.708 M190.500 268.219 C 190.500 268.248,190.744 268.491,191.042 268.760 L 191.583 269.250 191.094 268.708 C 190.638 268.203,190.500 268.090,190.500 268.219 M248.906 270.542 L 248.417 271.083 248.958 270.594 C 249.463 270.138,249.577 270.000,249.448 270.000 C 249.419 270.000,249.175 270.244,248.906 270.542 M242.958 272.951 C 243.165 272.991,243.502 272.991,243.708 272.951 C 243.915 272.911,243.746 272.879,243.333 272.879 C 242.921 272.879,242.752 272.911,242.958 272.951 M208.958 276.284 C 209.165 276.324,209.502 276.324,209.708 276.284 C 209.915 276.245,209.746 276.212,209.333 276.212 C 208.921 276.212,208.752 276.245,208.958 276.284 M210.458 276.284 C 210.665 276.324,211.002 276.324,211.208 276.284 C 211.415 276.245,211.246 276.212,210.833 276.212 C 210.421 276.212,210.252 276.245,210.458 276.284 M167.708 276.615 C 167.869 276.657,168.131 276.657,168.292 276.615 C 168.452 276.573,168.321 276.539,168.000 276.539 C 167.679 276.539,167.548 276.573,167.708 276.615 M156.406 277.208 L 155.917 277.750 156.458 277.260 C 156.756 276.991,157.000 276.748,157.000 276.719 C 157.000 276.590,156.862 276.703,156.406 277.208 M155.158 278.458 L 154.583 279.083 155.208 278.509 C 155.790 277.974,155.910 277.833,155.783 277.833 C 155.755 277.833,155.474 278.115,155.158 278.458 M207.375 280.448 C 207.535 280.490,207.798 280.490,207.958 280.448 C 208.119 280.406,207.987 280.372,207.667 280.372 C 207.346 280.372,207.215 280.406,207.375 280.448 M183.824 286.458 L 183.250 287.083 183.875 286.509 C 184.219 286.193,184.500 285.912,184.500 285.884 C 184.500 285.757,184.359 285.877,183.824 286.458 M162.045 287.333 C 162.045 287.746,162.078 287.915,162.118 287.708 C 162.157 287.502,162.157 287.165,162.118 286.958 C 162.078 286.752,162.045 286.921,162.045 287.333 M207.375 286.948 C 207.535 286.990,207.798 286.990,207.958 286.948 C 208.119 286.906,207.987 286.872,207.667 286.872 C 207.346 286.872,207.215 286.906,207.375 286.948 M217.542 286.948 C 217.702 286.990,217.965 286.990,218.125 286.948 C 218.285 286.906,218.154 286.872,217.833 286.872 C 217.512 286.872,217.381 286.906,217.542 286.948 M211.292 287.124 C 212.048 287.155,213.285 287.155,214.042 287.124 C 214.798 287.093,214.179 287.068,212.667 287.068 C 211.154 287.068,210.535 287.093,211.292 287.124 M207.792 290.451 C 207.998 290.491,208.335 290.491,208.542 290.451 C 208.748 290.411,208.579 290.379,208.167 290.379 C 207.754 290.379,207.585 290.411,207.792 290.451 M212.047 290.623 C 212.485 290.657,213.160 290.657,213.547 290.622 C 213.934 290.587,213.575 290.559,212.750 290.559 C 211.925 290.560,211.609 290.588,212.047 290.623 M216.048 291.250 C 216.049 291.708,216.081 291.876,216.120 291.623 C 216.158 291.369,216.157 290.994,216.117 290.789 C 216.078 290.584,216.046 290.792,216.048 291.250 M156.042 293.250 C 156.044 293.617,156.078 293.747,156.118 293.540 C 156.158 293.332,156.156 293.032,156.115 292.873 C 156.073 292.714,156.040 292.883,156.042 293.250 M200.961 293.121 C 201.261 293.158,201.711 293.157,201.961 293.119 C 202.212 293.081,201.967 293.051,201.417 293.052 C 200.867 293.053,200.662 293.084,200.961 293.121 M223.917 296.667 C 224.275 297.033,224.605 297.333,224.651 297.333 C 224.697 297.333,224.441 297.033,224.083 296.667 C 223.725 296.300,223.395 296.000,223.349 296.000 C 223.303 296.000,223.559 296.300,223.917 296.667 M222.160 298.042 C 222.850 298.778,223.000 298.910,223.000 298.785 C 223.000 298.758,222.644 298.402,222.208 297.993 L 221.417 297.250 222.160 298.042 M190.410 298.375 L 189.583 299.250 190.458 298.423 C 191.271 297.654,191.410 297.500,191.285 297.500 C 191.259 297.500,190.865 297.894,190.410 298.375 M163.214 298.917 C 163.216 299.375,163.248 299.543,163.286 299.289 C 163.325 299.036,163.324 298.661,163.284 298.456 C 163.244 298.251,163.213 298.458,163.214 298.917 M165.214 298.917 C 165.216 299.375,165.248 299.543,165.286 299.289 C 165.325 299.036,165.324 298.661,165.284 298.456 C 165.244 298.251,165.213 298.458,165.214 298.917 M182.048 299.917 C 182.049 300.375,182.081 300.543,182.120 300.289 C 182.158 300.036,182.157 299.661,182.117 299.456 C 182.078 299.251,182.046 299.458,182.048 299.917 M150.062 303.000 C 150.062 303.962,150.089 304.356,150.123 303.875 C 150.157 303.394,150.157 302.606,150.123 302.125 C 150.089 301.644,150.062 302.037,150.062 303.000 M171.833 301.878 C 171.833 302.055,171.650 302.168,171.292 302.213 L 170.750 302.280 171.297 302.307 C 171.817 302.332,172.200 301.978,171.937 301.715 C 171.880 301.658,171.833 301.731,171.833 301.878 M153.042 302.750 C 153.044 303.117,153.078 303.247,153.118 303.040 C 153.158 302.832,153.156 302.532,153.115 302.373 C 153.073 302.214,153.040 302.383,153.042 302.750 M182.406 304.208 L 181.917 304.750 182.458 304.260 C 182.963 303.804,183.077 303.667,182.948 303.667 C 182.919 303.667,182.675 303.910,182.406 304.208 M232.872 304.667 C 232.872 304.987,232.906 305.119,232.948 304.958 C 232.990 304.798,232.990 304.535,232.948 304.375 C 232.906 304.215,232.872 304.346,232.872 304.667 M158.333 305.052 C 158.333 305.081,158.577 305.325,158.875 305.594 L 159.417 306.083 158.927 305.542 C 158.471 305.037,158.333 304.923,158.333 305.052 M151.879 306.500 C 151.879 306.912,151.911 307.081,151.951 306.875 C 151.991 306.669,151.991 306.331,151.951 306.125 C 151.911 305.919,151.879 306.087,151.879 306.500 M229.562 307.833 C 229.562 308.796,229.589 309.190,229.623 308.708 C 229.657 308.227,229.657 307.440,229.623 306.958 C 229.589 306.477,229.562 306.871,229.562 307.833 M233.052 307.917 C 233.053 308.467,233.084 308.672,233.121 308.372 C 233.158 308.072,233.157 307.622,233.119 307.372 C 233.081 307.122,233.051 307.367,233.052 307.917 M156.333 307.885 C 156.333 307.914,156.577 308.158,156.875 308.427 L 157.417 308.917 156.927 308.375 C 156.471 307.870,156.333 307.757,156.333 307.885 M174.564 309.833 C 174.564 310.979,174.591 311.448,174.623 310.875 C 174.656 310.302,174.656 309.365,174.623 308.792 C 174.591 308.219,174.564 308.688,174.564 309.833 M171.063 309.833 C 171.063 310.887,171.090 311.319,171.123 310.792 C 171.156 310.265,171.156 309.402,171.123 308.875 C 171.090 308.348,171.063 308.779,171.063 309.833 M205.740 310.208 L 205.250 310.750 205.792 310.260 C 206.297 309.804,206.410 309.667,206.281 309.667 C 206.252 309.667,206.009 309.910,205.740 310.208 M184.388 311.250 C 184.389 311.892,184.419 312.134,184.455 311.788 C 184.491 311.442,184.490 310.917,184.454 310.621 C 184.417 310.325,184.387 310.608,184.388 311.250 M155.709 311.417 C 155.711 311.783,155.745 311.914,155.785 311.706 C 155.824 311.499,155.823 311.199,155.781 311.040 C 155.739 310.880,155.707 311.050,155.709 311.417 M200.328 311.792 L 199.417 312.750 200.375 311.839 C 200.902 311.338,201.333 310.907,201.333 310.881 C 201.333 310.757,201.174 310.901,200.328 311.792 M204.075 312.042 L 203.417 312.750 204.125 312.091 C 204.784 311.478,204.910 311.333,204.784 311.333 C 204.757 311.333,204.438 311.652,204.075 312.042 M225.372 312.833 C 225.372 313.154,225.406 313.285,225.448 313.125 C 225.490 312.965,225.490 312.702,225.448 312.542 C 225.406 312.381,225.372 312.512,225.372 312.833 M223.500 316.583 C 223.095 316.996,222.801 317.333,222.847 317.333 C 222.893 317.333,223.262 316.996,223.667 316.583 C 224.072 316.171,224.365 315.833,224.319 315.833 C 224.274 315.833,223.905 316.171,223.500 316.583 M108.805 319.417 C 108.757 319.466,108.280 319.561,107.747 319.628 C 107.214 319.695,106.749 319.835,106.715 319.938 C 106.554 320.422,108.933 320.368,109.119 319.885 C 109.214 319.636,108.962 319.260,108.805 319.417 M191.542 319.453 C 191.794 319.491,192.206 319.491,192.458 319.453 C 192.710 319.415,192.504 319.383,192.000 319.383 C 191.496 319.383,191.290 319.415,191.542 319.453 M177.712 320.333 C 177.712 320.746,177.745 320.915,177.784 320.708 C 177.824 320.502,177.824 320.165,177.784 319.958 C 177.745 319.752,177.712 319.921,177.712 320.333 M172.075 321.875 L 171.417 322.583 172.094 321.955 C 172.466 321.609,172.823 321.378,172.885 321.441 C 172.948 321.504,173.000 321.468,173.000 321.361 C 173.000 321.013,172.746 321.154,172.075 321.875 M182.627 322.451 C 182.834 322.491,183.134 322.490,183.294 322.448 C 183.453 322.406,183.283 322.374,182.917 322.375 C 182.550 322.377,182.420 322.411,182.627 322.451 M187.226 328.250 C 187.225 329.075,187.254 329.434,187.288 329.047 C 187.323 328.660,187.324 327.985,187.289 327.547 C 187.255 327.109,187.226 327.425,187.226 328.250 M210.573 328.708 L 210.083 329.250 210.625 328.760 C 211.130 328.304,211.243 328.167,211.115 328.167 C 211.086 328.167,210.842 328.410,210.573 328.708 M213.628 329.621 C 213.928 329.658,214.378 329.657,214.628 329.619 C 214.878 329.581,214.633 329.551,214.083 329.552 C 213.533 329.553,213.328 329.584,213.628 329.621 M191.627 332.451 C 191.834 332.491,192.134 332.490,192.294 332.448 C 192.453 332.406,192.283 332.374,191.917 332.375 C 191.550 332.377,191.420 332.411,191.627 332.451 M222.329 333.958 L 221.250 335.083 222.375 334.005 C 223.420 333.003,223.576 332.833,223.454 332.833 C 223.428 332.833,222.922 333.340,222.329 333.958 M180.000 333.583 C 180.311 333.904,180.603 334.167,180.649 334.167 C 180.695 334.167,180.478 333.904,180.167 333.583 C 179.856 333.262,179.564 333.000,179.518 333.000 C 179.472 333.000,179.689 333.262,180.000 333.583 M208.500 344.083 C 208.811 344.404,209.103 344.667,209.149 344.667 C 209.195 344.667,208.978 344.404,208.667 344.083 C 208.356 343.762,208.064 343.500,208.018 343.500 C 207.972 343.500,208.189 343.762,208.500 344.083 M193.491 345.292 L 192.917 345.917 193.542 345.342 C 193.885 345.026,194.167 344.745,194.167 344.717 C 194.167 344.590,194.026 344.710,193.491 345.292 M201.388 345.750 C 201.389 346.392,201.419 346.634,201.455 346.288 C 201.491 345.942,201.490 345.417,201.454 345.121 C 201.417 344.825,201.387 345.108,201.388 345.750 M196.544 345.120 C 196.797 345.158,197.172 345.157,197.377 345.117 C 197.582 345.078,197.375 345.046,196.917 345.048 C 196.458 345.049,196.291 345.081,196.544 345.120 M196.458 346.284 C 196.665 346.324,197.002 346.324,197.208 346.284 C 197.415 346.245,197.246 346.212,196.833 346.212 C 196.421 346.212,196.252 346.245,196.458 346.284 M204.372 347.667 C 204.372 347.988,204.406 348.119,204.448 347.958 C 204.490 347.798,204.490 347.535,204.448 347.375 C 204.406 347.215,204.372 347.346,204.372 347.667 M207.987 355.458 C 208.066 356.034,208.078 356.045,208.133 355.605 C 208.166 355.341,208.127 355.060,208.047 354.980 C 207.963 354.896,207.937 355.100,207.987 355.458 M210.519 355.425 C 210.509 355.613,210.425 355.857,210.334 355.967 C 210.243 356.078,210.287 356.064,210.433 355.937 C 210.579 355.810,210.663 355.566,210.619 355.395 C 210.547 355.114,210.537 355.117,210.519 355.425 M188.833 356.552 C 188.833 356.581,189.077 356.825,189.375 357.094 L 189.917 357.583 189.427 357.042 C 188.971 356.537,188.833 356.423,188.833 356.552 " stroke="none" fill="#5e5f5d" fill-rule="evenodd"></path><path id="path5" d="M178.960 65.618 C 179.168 65.658,179.468 65.656,179.627 65.615 C 179.786 65.573,179.617 65.540,179.250 65.542 C 178.883 65.544,178.753 65.578,178.960 65.618 M158.667 67.055 C 158.667 67.088,159.062 67.708,159.546 68.433 C 160.029 69.157,160.662 70.138,160.953 70.612 C 161.243 71.086,162.070 72.173,162.791 73.028 C 164.672 75.261,166.613 78.283,167.483 80.333 C 167.697 80.837,167.942 81.337,168.027 81.444 C 168.205 81.664,169.613 84.816,170.341 86.621 C 170.997 88.248,171.775 91.305,172.176 93.833 C 173.334 101.124,173.888 102.840,176.834 108.250 C 177.755 109.942,179.016 111.470,181.859 114.337 C 184.873 117.375,185.493 117.813,189.417 119.676 C 190.608 120.241,193.046 121.402,194.833 122.255 C 196.621 123.108,198.871 124.154,199.833 124.578 C 204.304 126.549,205.666 127.552,209.191 131.465 C 212.616 135.269,213.235 137.059,213.138 142.883 C 213.084 146.130,213.089 146.181,213.422 146.097 C 213.608 146.050,214.471 145.962,215.339 145.901 L 216.917 145.791 216.863 143.854 C 216.684 137.311,219.744 133.066,226.586 130.370 C 227.504 130.008,229.154 129.297,230.253 128.790 C 231.351 128.284,233.000 127.625,233.917 127.328 C 237.739 126.086,242.792 123.713,245.065 122.090 C 250.467 118.235,255.457 107.952,256.673 98.167 C 256.781 97.296,257.049 95.560,257.268 94.309 C 257.488 93.058,257.740 91.140,257.829 90.048 C 258.081 86.974,258.685 84.618,259.782 82.442 C 260.303 81.408,260.389 81.417,258.250 82.283 C 257.242 82.691,254.917 83.477,253.083 84.029 C 245.103 86.434,241.804 88.068,236.007 92.491 C 227.807 98.746,225.139 104.638,225.319 116.091 C 225.399 121.198,224.945 122.500,223.083 122.500 C 221.108 122.500,220.211 118.801,221.030 114.028 C 221.193 113.073,221.181 112.621,220.954 111.316 C 220.484 108.612,219.675 104.967,219.256 103.667 C 219.034 102.979,218.618 101.592,218.332 100.584 C 217.790 98.676,217.434 97.948,214.951 93.667 C 212.252 89.015,207.066 82.444,204.154 79.987 C 201.131 77.437,200.002 76.729,196.250 75.032 C 194.233 74.120,191.758 72.959,190.750 72.452 C 186.894 70.514,183.579 69.745,177.301 69.333 C 175.770 69.233,173.108 68.963,171.384 68.735 C 169.660 68.506,167.050 68.218,165.583 68.093 C 163.362 67.905,161.279 67.581,159.042 67.078 C 158.835 67.032,158.667 67.021,158.667 67.055 M194.088 92.430 C 195.047 93.081,197.309 95.162,197.896 95.933 C 198.183 96.309,199.229 97.622,200.221 98.850 C 203.924 103.433,206.159 108.463,205.049 109.710 C 203.626 111.309,202.377 110.574,200.862 107.246 C 199.548 104.361,199.081 103.602,197.190 101.272 C 196.306 100.184,195.344 98.984,195.052 98.605 C 194.760 98.227,193.762 97.247,192.833 96.428 C 190.948 94.765,190.833 94.610,190.833 93.744 C 190.833 92.239,192.697 91.487,194.088 92.430 M229.324 92.958 L 228.750 93.583 229.375 93.009 C 229.957 92.474,230.077 92.333,229.949 92.333 C 229.922 92.333,229.640 92.615,229.324 92.958 M241.394 101.063 C 242.483 101.518,242.911 102.519,242.484 103.614 C 242.383 103.872,242.121 104.817,241.901 105.715 C 241.428 107.648,241.357 107.794,239.576 110.492 C 237.151 114.165,236.305 115.098,235.333 115.172 C 232.898 115.357,232.201 113.544,233.958 111.596 C 235.788 109.567,237.749 106.295,238.159 104.583 C 238.755 102.100,239.075 101.517,240.083 101.069 C 240.716 100.787,240.734 100.787,241.394 101.063 M221.542 145.621 C 221.885 145.657,222.448 145.657,222.792 145.621 C 223.135 145.585,222.854 145.556,222.167 145.556 C 221.479 145.556,221.198 145.585,221.542 145.621 M274.250 166.500 C 274.608 166.867,274.938 167.167,274.984 167.167 C 275.030 167.167,274.775 166.867,274.417 166.500 C 274.059 166.133,273.728 165.833,273.682 165.833 C 273.637 165.833,273.892 166.133,274.250 166.500 M141.383 222.667 C 141.383 223.171,141.415 223.377,141.453 223.125 C 141.491 222.873,141.491 222.460,141.453 222.208 C 141.415 221.956,141.383 222.162,141.383 222.667 M180.375 241.917 C 180.377 242.283,180.411 242.414,180.451 242.206 C 180.491 241.999,180.490 241.699,180.448 241.540 C 180.406 241.380,180.374 241.550,180.375 241.917 M239.397 243.250 C 239.397 244.350,239.424 244.778,239.457 244.202 C 239.490 243.625,239.489 242.725,239.456 242.202 C 239.423 241.678,239.397 242.150,239.397 243.250 M180.379 244.833 C 180.379 245.246,180.411 245.415,180.451 245.208 C 180.491 245.002,180.491 244.665,180.451 244.458 C 180.411 244.252,180.379 244.421,180.379 244.833 M226.294 244.618 C 226.501 244.658,226.801 244.656,226.960 244.615 C 227.120 244.573,226.950 244.540,226.583 244.542 C 226.217 244.544,226.086 244.578,226.294 244.618 M215.294 245.118 C 215.501 245.158,215.801 245.156,215.960 245.115 C 216.120 245.073,215.950 245.040,215.583 245.042 C 215.217 245.044,215.086 245.078,215.294 245.118 M239.539 247.667 C 239.539 247.987,239.573 248.119,239.615 247.958 C 239.657 247.798,239.657 247.535,239.615 247.375 C 239.573 247.215,239.539 247.346,239.539 247.667 M227.460 247.951 C 227.668 247.991,227.968 247.990,228.127 247.948 C 228.286 247.906,228.117 247.874,227.750 247.875 C 227.383 247.877,227.253 247.911,227.460 247.951 M216.542 248.448 C 216.702 248.490,216.965 248.490,217.125 248.448 C 217.285 248.406,217.154 248.372,216.833 248.372 C 216.512 248.372,216.381 248.406,216.542 248.448 M212.460 248.618 C 212.668 248.658,212.968 248.656,213.127 248.615 C 213.286 248.573,213.117 248.540,212.750 248.542 C 212.383 248.544,212.253 248.578,212.460 248.618 M210.460 290.618 C 210.668 290.658,210.968 290.656,211.127 290.615 C 211.286 290.573,211.117 290.540,210.750 290.542 C 210.383 290.544,210.253 290.578,210.460 290.618 M214.458 290.618 C 214.665 290.657,215.002 290.657,215.208 290.618 C 215.415 290.578,215.246 290.545,214.833 290.545 C 214.421 290.545,214.252 290.578,214.458 290.618 M209.042 301.250 C 209.044 301.617,209.078 301.747,209.118 301.540 C 209.158 301.332,209.156 301.032,209.115 300.873 C 209.073 300.714,209.040 300.883,209.042 301.250 M146.565 303.000 C 146.565 304.237,146.592 304.744,146.624 304.125 C 146.656 303.506,146.656 302.494,146.624 301.875 C 146.592 301.256,146.565 301.762,146.565 303.000 M233.039 306.500 C 233.039 306.821,233.073 306.952,233.115 306.792 C 233.157 306.631,233.157 306.369,233.115 306.208 C 233.073 306.048,233.039 306.179,233.039 306.500 M201.324 314.958 L 200.750 315.583 201.375 315.009 C 201.719 314.693,202.000 314.412,202.000 314.384 C 202.000 314.257,201.859 314.377,201.324 314.958 M159.324 315.125 L 158.750 315.750 159.375 315.176 C 159.957 314.641,160.077 314.500,159.949 314.500 C 159.922 314.500,159.640 314.781,159.324 315.125 M181.052 315.917 C 181.053 316.467,181.084 316.672,181.121 316.372 C 181.158 316.072,181.157 315.622,181.119 315.372 C 181.081 315.122,181.051 315.367,181.052 315.917 M216.042 328.115 C 216.202 328.157,216.465 328.157,216.625 328.115 C 216.785 328.073,216.654 328.039,216.333 328.039 C 216.012 328.039,215.881 328.073,216.042 328.115 M198.788 329.620 C 199.084 329.657,199.609 329.658,199.955 329.622 C 200.300 329.586,200.058 329.555,199.417 329.555 C 198.775 329.554,198.492 329.583,198.788 329.620 M203.917 359.500 C 204.275 359.867,204.605 360.167,204.651 360.167 C 204.697 360.167,204.441 359.867,204.083 359.500 C 203.725 359.133,203.395 358.833,203.349 358.833 C 203.303 358.833,203.559 359.133,203.917 359.500 M210.875 363.115 C 211.035 363.157,211.298 363.157,211.458 363.115 C 211.619 363.073,211.487 363.039,211.167 363.039 C 210.846 363.039,210.715 363.073,210.875 363.115 " stroke="none" fill="#97f3a5" fill-rule="evenodd"></path></g></svg>