<svg id="svg" version="1.1" xmlns="http://www.w3.org/2000/svg" xmlns:xlink="http://www.w3.org/1999/xlink" width="400" height="400" viewBox="0, 0, 400,400"><g id="svgg"><path id="path0" d="M273.171 317.033 C 270.988 318.507,269.599 322.683,270.722 324.397 C 271.008 324.834,272.766 325.833,273.249 325.833 C 273.391 325.833,276.825 326.654,280.879 327.658 C 312.589 335.505,308.258 334.619,308.407 333.292 C 308.642 331.195,309.017 329.897,309.920 328.047 C 310.978 325.881,310.979 325.872,310.375 325.737 C 310.123 325.681,309.392 325.496,308.750 325.327 C 308.108 325.158,305.971 324.606,304.000 324.102 C 289.760 320.457,284.154 319.014,279.167 317.708 C 274.857 316.579,273.988 316.482,273.171 317.033 M291.500 322.581 C 299.345 324.618,299.000 324.499,299.000 325.157 C 299.000 326.230,299.235 326.261,290.917 324.081 C 290.092 323.865,288.517 323.453,287.417 323.166 C 283.229 322.073,283.167 322.048,283.167 321.430 C 283.167 320.390,282.944 320.359,291.500 322.581 M303.917 325.754 C 306.488 326.265,307.138 326.646,306.823 327.458 C 306.649 327.906,306.191 327.939,304.844 327.600 C 304.334 327.472,303.474 327.286,302.934 327.187 C 301.834 326.986,301.333 326.635,301.333 326.066 C 301.333 325.589,301.785 325.301,302.333 325.427 C 302.563 325.480,303.275 325.627,303.917 325.754 M324.949 329.965 C 324.606 330.344,323.284 333.317,322.933 334.496 C 322.553 335.775,322.569 337.948,322.958 338.066 C 323.119 338.115,327.975 339.322,333.750 340.747 C 339.525 342.173,345.712 343.704,347.500 344.149 C 351.268 345.086,350.926 345.124,350.667 343.800 C 350.302 341.939,350.980 338.599,352.020 337.138 C 352.487 336.483,353.292 336.764,344.667 334.562 C 342.696 334.059,340.071 333.384,338.833 333.062 C 324.916 329.444,325.335 329.537,324.949 329.965 M337.264 334.503 C 349.263 337.413,348.636 337.235,348.769 337.765 C 349.086 339.031,349.325 339.065,337.083 336.097 C 326.271 333.475,326.000 333.394,326.000 332.763 C 326.000 331.711,325.321 331.606,337.264 334.503 M364.424 340.625 C 363.342 342.105,362.798 343.433,362.620 345.025 C 362.331 347.610,362.604 347.888,366.333 348.820 C 369.473 349.604,371.890 350.239,373.047 350.582 C 374.700 351.073,376.005 349.130,376.135 345.985 C 376.244 343.318,375.771 342.562,373.649 342.013 C 368.304 340.632,365.169 339.833,365.093 339.833 C 365.044 339.833,364.743 340.190,364.424 340.625 M369.688 342.327 C 371.097 342.702,372.531 343.084,372.873 343.177 C 373.976 343.475,373.894 344.667,372.771 344.666 C 372.485 344.666,371.275 344.403,370.083 344.081 C 368.892 343.759,367.392 343.375,366.750 343.226 C 365.410 342.915,365.167 342.767,365.167 342.263 C 365.167 341.294,365.836 341.303,369.688 342.327 " stroke="none" fill="#5afff7" fill-rule="evenodd"></path><path id="path1" d="M283.375 320.854 C 283.260 320.971,283.167 321.230,283.167 321.430 C 283.167 322.048,283.229 322.073,287.417 323.166 C 288.517 323.453,290.092 323.865,290.917 324.081 C 299.235 326.261,299.000 326.230,299.000 325.157 C 299.000 324.499,299.345 324.618,291.500 322.581 C 283.879 320.602,283.667 320.557,283.375 320.854 M301.625 325.507 C 300.791 326.011,301.504 326.926,302.934 327.187 C 303.474 327.286,304.334 327.472,304.844 327.600 C 306.191 327.939,306.649 327.906,306.823 327.458 C 307.138 326.646,306.488 326.265,303.917 325.754 C 303.275 325.627,302.563 325.480,302.333 325.427 C 302.104 325.374,301.785 325.410,301.625 325.507 M326.200 332.200 C 325.926 332.474,325.949 333.083,326.242 333.326 C 326.506 333.546,347.439 338.667,348.071 338.667 C 349.018 338.667,349.061 337.488,348.125 337.183 C 347.263 336.901,326.975 332.000,326.673 332.000 C 326.523 332.000,326.310 332.090,326.200 332.200 M365.375 341.685 C 364.728 342.353,365.183 342.862,366.750 343.226 C 367.392 343.375,368.892 343.759,370.083 344.081 C 371.275 344.403,372.485 344.666,372.771 344.666 C 373.894 344.667,373.976 343.475,372.873 343.177 C 366.793 341.529,365.731 341.318,365.375 341.685 " stroke="none" fill="#f4fcfc" fill-rule="evenodd"></path><path id="path2" d="M271.967 312.042 C 271.845 312.156,271.380 312.438,270.935 312.667 C 265.965 315.226,263.853 323.044,267.111 326.825 C 267.462 327.233,267.758 327.758,267.769 327.992 C 267.838 329.563,268.073 331.555,268.281 332.333 C 268.645 333.695,269.638 335.833,270.501 337.111 C 270.776 337.518,271.123 338.090,271.273 338.384 C 272.173 340.142,274.800 342.149,276.840 342.635 C 277.249 342.733,277.921 342.894,278.333 342.993 C 278.746 343.092,280.133 343.502,281.417 343.904 C 283.577 344.582,284.426 344.837,287.833 345.837 C 288.521 346.038,289.608 346.376,290.250 346.588 C 291.401 346.967,292.211 347.166,294.333 347.589 C 294.929 347.707,295.829 347.930,296.333 348.083 C 299.528 349.052,302.055 349.585,305.500 350.015 C 306.188 350.101,306.975 350.241,307.250 350.326 C 307.818 350.503,311.374 350.815,313.507 350.876 C 316.726 350.968,320.648 347.286,321.676 343.208 C 321.797 342.727,321.959 342.333,322.035 342.333 C 322.177 342.333,337.278 346.039,338.333 346.332 C 338.654 346.422,342.141 347.291,346.081 348.263 C 350.021 349.236,353.434 350.127,353.664 350.243 C 353.895 350.359,354.512 350.496,355.037 350.548 C 355.561 350.599,356.236 350.723,356.537 350.822 C 356.837 350.921,359.987 351.716,363.537 352.589 C 367.086 353.462,370.199 354.281,370.453 354.409 C 375.555 356.969,380.487 352.587,380.497 345.484 C 380.501 342.712,378.894 339.000,377.689 339.000 C 377.585 339.000,377.500 338.934,377.500 338.854 C 377.500 338.655,376.839 338.401,375.250 337.989 C 374.517 337.798,373.092 337.428,372.083 337.165 C 367.574 335.990,364.178 335.117,363.333 334.916 C 362.829 334.795,361.517 334.458,360.417 334.167 C 359.317 333.875,358.004 333.537,357.500 333.417 C 356.996 333.296,355.721 332.970,354.667 332.693 C 353.613 332.416,351.287 331.815,349.500 331.357 C 345.271 330.275,340.157 328.957,337.333 328.221 C 336.096 327.898,334.671 327.535,334.167 327.415 C 333.662 327.295,331.900 326.847,330.250 326.420 C 328.600 325.993,325.975 325.316,324.417 324.916 C 322.858 324.515,320.571 323.927,319.333 323.607 C 313.947 322.216,310.199 321.252,307.167 320.477 C 305.379 320.020,302.642 319.318,301.083 318.917 C 293.620 316.996,292.129 316.612,289.375 315.905 C 287.748 315.487,285.142 314.818,283.583 314.419 C 280.538 313.637,276.201 312.516,274.590 312.094 C 273.393 311.780,272.272 311.758,271.967 312.042 M277.935 317.346 C 279.758 317.811,282.112 318.418,283.167 318.694 C 284.221 318.971,285.496 319.296,286.000 319.418 C 286.504 319.539,287.779 319.862,288.833 320.137 C 289.887 320.411,292.550 321.098,294.750 321.663 C 296.950 322.229,299.612 322.916,300.667 323.190 C 301.721 323.464,302.996 323.788,303.500 323.910 C 304.673 324.193,308.793 325.265,310.042 325.611 C 311.193 325.931,311.182 325.706,310.140 327.735 C 309.047 329.862,308.681 331.049,308.553 332.881 C 308.496 333.686,308.396 334.378,308.330 334.419 C 308.264 334.460,305.698 333.865,302.628 333.098 C 299.558 332.331,296.679 331.616,296.231 331.509 C 295.436 331.320,294.352 331.051,292.500 330.585 C 291.996 330.458,291.246 330.275,290.833 330.178 C 290.421 330.081,289.821 329.928,289.500 329.837 C 288.395 329.523,275.248 326.307,273.790 325.993 C 270.894 325.370,270.421 324.844,270.419 322.244 C 270.416 319.413,272.327 316.686,274.435 316.515 C 274.537 316.507,276.112 316.881,277.935 317.346 M317.833 327.604 C 319.071 327.932,320.290 328.238,320.542 328.286 C 320.794 328.333,321.000 328.386,321.000 328.404 C 321.000 328.422,320.859 328.733,320.687 329.094 C 319.349 331.900,318.692 333.886,318.535 335.602 C 318.441 336.618,318.358 336.912,318.165 336.895 C 317.251 336.817,312.882 335.598,312.708 335.373 C 311.924 334.357,313.739 328.288,315.148 327.215 C 315.491 326.954,315.239 326.917,317.833 327.604 M326.833 329.913 C 327.695 330.121,331.311 331.052,335.667 332.189 C 336.721 332.463,337.996 332.788,338.500 332.909 C 339.004 333.031,340.767 333.482,342.417 333.913 C 344.067 334.343,346.917 335.073,348.750 335.534 C 352.498 336.477,352.526 336.490,352.110 337.128 C 351.314 338.350,350.963 339.471,350.682 341.698 C 350.550 342.740,350.604 343.392,350.918 344.564 C 351.065 345.111,351.092 345.110,349.042 344.595 C 348.469 344.451,347.531 344.217,346.958 344.075 C 346.385 343.932,345.485 343.707,344.958 343.575 C 344.431 343.442,343.531 343.218,342.958 343.077 C 342.385 342.936,341.467 342.709,340.917 342.572 C 340.367 342.435,339.583 342.250,339.175 342.161 C 338.768 342.071,338.205 341.926,337.925 341.838 C 337.646 341.749,336.292 341.412,334.917 341.088 C 333.542 340.763,332.192 340.430,331.917 340.346 C 331.642 340.262,331.154 340.144,330.833 340.083 C 330.512 340.022,330.025 339.904,329.750 339.820 C 329.475 339.736,327.825 339.320,326.083 338.896 C 324.342 338.473,322.823 338.051,322.708 337.959 C 321.654 337.116,324.349 329.206,325.563 329.582 C 325.757 329.642,326.329 329.791,326.833 329.913 M276.448 330.828 C 278.631 331.375,285.142 332.990,290.917 334.418 C 296.692 335.845,305.115 337.929,309.636 339.048 L 317.855 341.083 317.747 341.659 C 317.687 341.975,317.476 342.529,317.278 342.889 C 317.079 343.249,316.811 343.739,316.681 343.977 C 316.551 344.215,315.948 344.918,315.341 345.539 L 314.237 346.667 313.077 346.665 C 311.929 346.663,307.768 346.251,307.317 346.094 C 307.188 346.050,305.996 345.860,304.667 345.673 C 302.139 345.317,300.483 344.951,297.833 344.163 C 296.962 343.904,295.612 343.570,294.833 343.421 C 293.424 343.151,290.419 342.291,285.167 340.657 C 283.654 340.186,281.365 339.519,280.079 339.175 C 277.616 338.516,277.374 338.414,276.171 337.529 C 274.799 336.520,272.661 332.666,272.246 330.453 C 272.101 329.679,271.731 329.646,276.448 330.828 M359.042 338.190 C 360.894 338.631,360.836 338.553,360.141 339.683 C 359.140 341.309,358.685 342.711,358.478 344.804 C 358.248 347.130,358.419 346.888,357.204 346.605 C 355.876 346.295,355.947 346.360,355.315 344.875 C 354.389 342.697,354.617 340.512,355.958 338.699 C 356.563 337.882,356.812 337.665,357.076 337.726 C 357.264 337.768,358.148 337.977,359.042 338.190 M367.000 340.240 C 367.871 340.462,369.913 340.981,371.538 341.394 C 375.196 342.324,375.289 342.368,375.867 343.477 C 376.858 345.378,376.146 348.884,374.446 350.475 C 373.958 350.931,374.069 350.945,370.500 349.966 C 369.171 349.601,366.999 349.029,365.673 348.693 C 363.399 348.117,363.241 348.051,362.881 347.517 C 362.027 346.249,362.534 343.365,364.004 341.125 C 364.969 339.655,364.845 339.692,367.000 340.240 " stroke="none" fill="#040404" fill-rule="evenodd"></path><path id="path3" d="M315.040 327.375 C 313.964 328.711,312.866 331.496,312.671 333.378 C 312.445 335.561,312.345 335.456,315.349 336.198 C 318.398 336.951,318.333 336.946,318.333 336.410 C 318.333 335.083,319.163 332.266,320.240 329.933 C 320.973 328.345,321.107 328.493,318.271 327.762 C 315.756 327.114,315.294 327.059,315.040 327.375 M272.249 330.002 C 272.091 330.258,272.671 332.007,273.354 333.333 C 275.460 337.423,276.257 338.106,280.052 339.078 C 281.310 339.401,282.581 339.766,282.877 339.889 C 283.174 340.013,284.504 340.433,285.833 340.823 C 287.162 341.213,289.450 341.895,290.917 342.340 C 292.383 342.784,294.226 343.264,295.011 343.407 C 295.796 343.549,297.071 343.856,297.844 344.088 C 300.019 344.742,301.821 345.189,302.917 345.346 C 305.223 345.677,307.146 345.978,308.083 346.157 C 310.268 346.572,314.012 346.625,314.571 346.248 C 315.659 345.516,317.590 342.603,317.707 341.519 C 317.757 341.061,320.070 341.659,281.167 332.063 C 276.537 330.921,272.659 329.955,272.547 329.917 C 272.435 329.879,272.301 329.917,272.249 330.002 M356.301 338.365 C 354.513 340.613,354.308 342.676,355.600 345.406 C 356.002 346.255,356.046 346.291,356.966 346.496 C 357.489 346.613,357.999 346.741,358.100 346.780 C 358.223 346.827,358.314 346.306,358.375 345.217 C 358.483 343.281,359.070 341.328,360.010 339.778 C 360.728 338.593,360.786 338.669,358.808 338.187 C 358.015 337.994,357.255 337.793,357.119 337.741 C 356.961 337.680,356.667 337.904,356.301 338.365 " stroke="none" fill="#359fff" fill-rule="evenodd"></path><path id="path4" d="M312.539 333.833 C 312.539 334.154,312.573 334.285,312.615 334.125 C 312.657 333.965,312.657 333.702,312.615 333.542 C 312.573 333.381,312.539 333.512,312.539 333.833 M318.358 336.194 C 318.345 336.531,318.240 336.843,318.125 336.890 C 317.962 336.955,317.963 336.977,318.130 336.987 C 318.413 337.004,318.541 336.637,318.454 336.056 C 318.393 335.649,318.380 335.669,318.358 336.194 M322.555 336.750 C 322.555 337.392,322.586 337.634,322.622 337.288 C 322.658 336.942,322.657 336.417,322.620 336.121 C 322.583 335.825,322.554 336.108,322.555 336.750 M358.372 344.833 C 358.372 345.154,358.406 345.285,358.448 345.125 C 358.490 344.965,358.490 344.702,358.448 344.542 C 358.406 344.381,358.372 344.512,358.372 344.833 M362.539 344.833 C 362.539 345.154,362.573 345.285,362.615 345.125 C 362.657 344.965,362.657 344.702,362.615 344.542 C 362.573 344.381,362.539 344.512,362.539 344.833 M376.223 345.500 C 376.223 346.188,376.252 346.469,376.288 346.125 C 376.324 345.781,376.324 345.219,376.288 344.875 C 376.252 344.531,376.223 344.813,376.223 345.500 M309.960 346.451 C 310.168 346.491,310.468 346.490,310.627 346.448 C 310.786 346.406,310.617 346.374,310.250 346.375 C 309.883 346.377,309.753 346.411,309.960 346.451 M311.963 346.622 C 312.355 346.657,312.955 346.657,313.296 346.621 C 313.637 346.585,313.317 346.557,312.583 346.557 C 311.850 346.558,311.571 346.587,311.963 346.622 " stroke="none" fill="#2c7474" fill-rule="evenodd"></path></g></svg>